<svg id="Icons" xmlns="http://www.w3.org/2000/svg" viewBox="0 0 80 80"><title>a-card</title><path d="M67.08,20.89H12.92a3.6,3.6,0,0,0-3.59,3.59V55.53a3.6,3.6,0,0,0,3.59,3.59H67.08a3.6,3.6,0,0,0,3.58-3.59V24.47A3.6,3.6,0,0,0,67.08,20.89ZM47.78,34.46l2.67-3.58a.57.57,0,0,1,.8-.1l1.22.94a.57.57,0,0,1,.11.8L49.9,36.1a.57.57,0,0,1-.8.1l-1.22-.94A.56.56,0,0,1,47.78,34.46ZM27.54,31.73l1.22-.94a.57.57,0,0,1,.8.1l2.66,3.58a.56.56,0,0,1-.11.79l-1.22.94a.56.56,0,0,1-.79-.1l-2.66-3.57A.57.57,0,0,1,27.54,31.73Zm.8,14.21-4.2,1.49a.56.56,0,0,1-.71-.36l-.49-1.46a.57.57,0,0,1,.36-.72L27.5,43.4a.56.56,0,0,1,.71.35l.49,1.46A.57.57,0,0,1,28.34,45.93Zm1.17-6.81L29,40.58a.56.56,0,0,1-.72.35l-5.9-2a.57.57,0,0,1-.35-.72l.49-1.47a.57.57,0,0,1,.72-.35l5.9,2A.57.57,0,0,1,29.51,39.12Zm16,11.45-1.66-4.71H36.1l-1.67,4.71H29.9L38,29.42h4.11l8,21.15Zm11.58-5-.49,1.46a.56.56,0,0,1-.71.36l-4.2-1.49a.57.57,0,0,1-.36-.72l.49-1.46a.56.56,0,0,1,.72-.35l4.2,1.49A.56.56,0,0,1,57.07,45.61ZM57.59,39l-5.9,2a.56.56,0,0,1-.72-.35l-.49-1.46a.57.57,0,0,1,.36-.72l5.9-2a.57.57,0,0,1,.72.35L58,38.25A.57.57,0,0,1,57.59,39Z"/><path d="M40,34.71c-.21.79-.64,2.06-1.05,3.3l-1.36,3.84h4.84L41,38C40.59,36.77,40.17,35.5,40,34.71Z"/></svg>