<svg id="Icons" xmlns="http://www.w3.org/2000/svg" viewBox="0 0 80 80"><title>akaart-zuilen</title><path d="M44.55,43.81a1,1,0,0,0,1.09,1.13,2.54,2.54,0,0,0,1.59-.71V42.54h-.6C45,42.54,44.55,43.07,44.55,43.81Z"/><path d="M47.23,42.54h-.6c-1.66,0-2.08.53-2.08,1.27a1,1,0,0,0,1.09,1.13,2.54,2.54,0,0,0,1.59-.71V42.54Z"/><path d="M51.71,43.81a1,1,0,0,0,1.09,1.13,2.54,2.54,0,0,0,1.59-.71V42.54h-.6C52.13,42.54,51.71,43.07,51.71,43.81Z"/><path d="M54.43,42.54h-.6c-1.66,0-2.08.53-2.08,1.27a1,1,0,0,0,1.09,1.13,2.54,2.54,0,0,0,1.59-.71V42.54Z"/><path d="M23.81,37.21c-.11.46-.35,1.2-.6,1.9l-.78,2.22h2.79l-.78-2.22A14.91,14.91,0,0,1,23.81,37.21Z"/><path d="M23.81,37.21c-.11.46-.35,1.2-.6,1.9l-.78,2.22h2.79l-.78-2.22a14.91,14.91,0,0,1-.63-1.9Z"/><path d="M70.12,20.35A2.17,2.17,0,0,0,68,18.17H12a2.15,2.15,0,0,0-2.15,2.19V59.65A2.17,2.17,0,0,0,12,61.83H68a2.15,2.15,0,0,0,2.15-2.19V20.35ZM28.29,37.07l1.52-2a.33.33,0,0,1,.46-.07l.71.53a.33.33,0,0,1,.07.46l-1.52,2a.33.33,0,0,1-.46.07l-.71-.53A.33.33,0,0,1,28.29,37.07ZM16.65,35.49l.71-.53a.33.33,0,0,1,.46.07l1.52,2a.33.33,0,0,1-.07.46l-.71.53A.33.33,0,0,1,18.1,38l-1.52-2A.34.34,0,0,1,16.65,35.49Zm.46,8.18-2.43.85a.33.33,0,0,1-.42-.21L14,43.46a.33.33,0,0,1,.21-.42l2.43-.85a.33.33,0,0,1,.42.21l.28.85A.34.34,0,0,1,17.11,43.67Zm.67-3.92-.28.85a.36.36,0,0,1-.42.21l-3.39-1.13a.36.36,0,0,1-.21-.42l.28-.85a.36.36,0,0,1,.42-.21l3.39,1.13A.33.33,0,0,1,17.78,39.75ZM27,46.35l-1-2.72H21.55l-1,2.72H18l4.66-12.17H25l4.62,12.17Zm6.63-2.86-.28.85a.36.36,0,0,1-.42.21l-2.43-.85a.36.36,0,0,1-.21-.42l.28-.85a.36.36,0,0,1,.42-.21l2.43.85A.33.33,0,0,1,33.62,43.49Zm.32-3.84-3.39,1.13a.33.33,0,0,1-.42-.21l-.28-.85a.33.33,0,0,1,.21-.42l3.39-1.13a.33.33,0,0,1,.42.21l.28.85A.3.3,0,0,1,33.93,39.65Zm6.84,6.21-2.29-3.63v3.63H37V35.73h1.48v5.82l1.9-2.79h1.76l-2.33,3,2.72,4.16h-1.8Zm7.94,0H47.58l-.11-.78a3.32,3.32,0,0,1-2.19.92c-1.41,0-2.15-.71-2.15-2,0-1.45,1.13-2.43,3.63-2.43h.53V41c0-.85-.46-1.27-1.48-1.27a6.23,6.23,0,0,0-2.08.42l-.21-.92a6.86,6.86,0,0,1,2.72-.6c1.8,0,2.54.85,2.54,2.15v5.11Zm7.16,0H54.74l-.11-.78a3.32,3.32,0,0,1-2.19.92c-1.41,0-2.15-.71-2.15-2,0-1.45,1.13-2.43,3.63-2.43h.53V41c0-.85-.46-1.27-1.48-1.27a6.23,6.23,0,0,0-2.08.42l-.21-.92a6.86,6.86,0,0,1,2.72-.6c1.8,0,2.54.85,2.54,2.15v5.11Zm5.71-5.78A2.67,2.67,0,0,0,61,40c-.42,0-.81.32-1.52,1.2v4.69H58V38.73h1.2l.14,1.2c.78-1,1.27-1.34,1.76-1.34a1.6,1.6,0,0,1,.63.14ZM65.26,46c-1.23,0-1.73-.53-1.73-1.87v-4.3h-1V38.77h1.06c.14-.63.25-1.27.35-2H65v2H66.7v1.06H65v3.92c0,.85.18,1.13.74,1.13a3,3,0,0,0,1.06-.21l.14.88A3.58,3.58,0,0,1,65.26,46Z"/></svg>