<svg id="Icons" xmlns="http://www.w3.org/2000/svg" viewBox="0 0 80 80"><title>akaart-outline</title><path d="M66.81,21.48v37H13.19v-37H66.81M68,18.17H12a2.15,2.15,0,0,0-2.15,2.19V59.65A2.17,2.17,0,0,0,12,61.83H68a2.15,2.15,0,0,0,2.15-2.19V20.35A2.15,2.15,0,0,0,68,18.17Z"/><path d="M45.54,38.45A6.42,6.42,0,0,0,43,39l.21.85a5.42,5.42,0,0,1,1.94-.39c1,0,1.38.39,1.38,1.2v.6h-.49c-2.33,0-3.39.92-3.39,2.26,0,1.16.71,1.83,2,1.83a3.07,3.07,0,0,0,2-.85l.11.71H47.9V40.46C47.9,39.26,47.2,38.45,45.54,38.45Zm1,5.22a2.42,2.42,0,0,1-1.48.67.93.93,0,0,1-1-1c0-.71.39-1.2,1.94-1.2h.56Z"/><path d="M52.2,38.45a6.42,6.42,0,0,0-2.5.53l.21.85a5.42,5.42,0,0,1,1.94-.39c1,0,1.38.39,1.38,1.2v.6h-.49c-2.33,0-3.39.92-3.39,2.26,0,1.16.71,1.83,2,1.83a3.07,3.07,0,0,0,2-.85l.11.71h1.06V40.46C54.57,39.26,53.86,38.45,52.2,38.45Zm1,5.22a2.42,2.42,0,0,1-1.48.67.93.93,0,0,1-1-1c0-.71.39-1.2,1.94-1.2h.56v1.55Z"/><path d="M25.89,34.32H23.7L19.37,45.64H21.8l.88-2.5h4.13l.88,2.5h2.5ZM23.42,41l.74-2c.21-.67.46-1.34.56-1.76.11.42.35,1.09.56,1.76L26,41Z"/><path d="M28.92,37l1.41-1.9a.33.33,0,0,1,.42-.07l.63.49a.33.33,0,0,1,.07.42l-1.41,1.9a.33.33,0,0,1-.42.07L29,37.46A.29.29,0,0,1,28.92,37Z"/><path d="M18.1,35.56l.63-.49a.29.29,0,0,1,.42.07L20.56,37a.29.29,0,0,1-.07.42l-.67.49a.29.29,0,0,1-.42-.07L18,36A.35.35,0,0,1,18.1,35.56Z"/><path d="M18.52,43.17,16.26,44a.3.3,0,0,1-.39-.18L15.63,43a.3.3,0,0,1,.18-.39l2.26-.81a.3.3,0,0,1,.39.18l.25.78A.31.31,0,0,1,18.52,43.17Z"/><path d="M19.15,39.54l-.25.78a.28.28,0,0,1-.39.18l-3.14-1.06A.3.3,0,0,1,15.2,39l.25-.78a.3.3,0,0,1,.39-.18L19,39.15A.32.32,0,0,1,19.15,39.54Z"/><path d="M33.86,43l-.25.78a.29.29,0,0,1-.39.18L31,43.14a.27.27,0,0,1-.18-.39L31,42a.3.3,0,0,1,.39-.18l2.26.81A.28.28,0,0,1,33.86,43Z"/><path d="M34.14,39.44,31,40.49a.31.31,0,0,1-.39-.18l-.25-.78a.31.31,0,0,1,.18-.39l3.14-1.06a.3.3,0,0,1,.39.18l.25.78A.27.27,0,0,1,34.14,39.44Z"/><polygon points="40.53 45.22 38.41 41.8 38.41 45.22 37.04 45.22 37.04 35.77 38.41 35.77 38.41 41.2 40.18 38.59 41.83 38.59 39.65 41.34 42.15 45.22 40.53 45.22"/><path d="M59.89,39.82a2.16,2.16,0,0,0-.56-.11c-.39,0-.74.28-1.41,1.09v4.37H56.54V38.55h1.13l.11,1.13c.71-.92,1.16-1.23,1.66-1.23a1.34,1.34,0,0,1,.6.14Z"/><path d="M63.28,45.33c-1.16,0-1.59-.49-1.59-1.76v-4h-1v-1h1a14.29,14.29,0,0,0,.32-1.9h1v1.9h1.62v1H63v3.67c0,.78.18,1.06.71,1.06a3.39,3.39,0,0,0,1-.18l.14.81A3.25,3.25,0,0,1,63.28,45.33Z"/></svg>