<svg id="Icons" xmlns="http://www.w3.org/2000/svg" viewBox="0 0 80 80"><title>antwerp</title><path d="M49.22,57.76l-2.79-7.92h-13l-2.79,7.92H23l13.6-35.53h6.9L57,57.76ZM41.71,36.65c-.71-2.08-1.42-4.21-1.78-5.53-.35,1.32-1.06,3.45-1.77,5.53L35.88,43.1H44Z"/><path d="M21.56,41a1,1,0,0,1-1.2.6l-9.91-3.32a1,1,0,0,1-.6-1.21l.82-2.46a1,1,0,0,1,1.2-.6l9.91,3.33a1,1,0,0,1,.6,1.2Z"/><path d="M21,48.76a1,1,0,0,1-.6,1.21l-7.06,2.5a1,1,0,0,1-1.21-.6l-.82-2.46a1,1,0,0,1,.6-1.21L19,45.7a1,1,0,0,1,1.21.6Z"/><path d="M19.08,26.11a1,1,0,0,0-.17,1.33l4.47,6a1,1,0,0,0,1.33.17l2-1.58a1,1,0,0,0,.17-1.33l-4.47-6a1,1,0,0,0-1.34-.17Z"/><path d="M58.44,41a1,1,0,0,0,1.21.6l9.91-3.32a1,1,0,0,0,.6-1.21l-.82-2.46a1,1,0,0,0-1.21-.6l-9.91,3.33a1,1,0,0,0-.6,1.2Z"/><path d="M59,48.76a1,1,0,0,0,.6,1.21l7.06,2.5a1,1,0,0,0,1.2-.6l.82-2.46a1,1,0,0,0-.6-1.21L61,45.7a1,1,0,0,0-1.21.6Z"/><path d="M60.92,26.11a1,1,0,0,1,.17,1.33l-4.47,6a1,1,0,0,1-1.33.17L53.23,32a1,1,0,0,1-.17-1.33l4.47-6a1,1,0,0,1,1.33-.17Z"/></svg>