<svg id="Icons" xmlns="http://www.w3.org/2000/svg" viewBox="0 0 80 80"><title>calendar</title><path d="M38.67,55.67a1.93,1.93,0,0,1-1.31-.51L29.21,47a1.75,1.75,0,0,1,2.47-2.47l6.94,6.94,13.6-13.6a1.75,1.75,0,1,1,2.48,2.47L39.9,55.16A1.75,1.75,0,0,1,38.67,55.67Z"/><path d="M70,22.54a2.15,2.15,0,0,0-2.14-2.18h-4.6V18.7a2.56,2.56,0,0,0-2.59-2.57H57.53a2.54,2.54,0,0,0-1.69.63l-.09.08-.08.08L55.6,17A2.58,2.58,0,0,0,55,18.72v1.64h-4.2V18.7a2.56,2.56,0,0,0-2.59-2.57H45a2.54,2.54,0,0,0-1.69.63l-.09.08-.08.08-.07.08a2.58,2.58,0,0,0-.65,1.74v1.64h-4.2V18.7a2.56,2.56,0,0,0-2.59-2.57H32.51a2.54,2.54,0,0,0-1.69.63l-.09.08-.08.08-.07.08a2.58,2.58,0,0,0-.65,1.74v1.64h-4.2V18.7a2.56,2.56,0,0,0-2.59-2.57H20a2.54,2.54,0,0,0-1.69.63l-.09.08-.08.08-.07.08a2.58,2.58,0,0,0-.65,1.74v1.64H12.14A2.13,2.13,0,0,0,10,22.54V41.78c0,.15,0,.28,0,.43s0,.29,0,.44V61.7a2.15,2.15,0,0,0,2.14,2.18H67.86A2.13,2.13,0,0,0,70,61.7V42.46c0-.15,0-.28,0-.42s0-.29,0-.44ZM57.45,18.7l0-.07,0,0,3.14,0c.09,0,.09,0,.09.07v6.77l0,0H57.55c-.1,0-.1,0-.1-.08Zm-12.51,0,0-.07,0,0,3.14,0c.09,0,.09,0,.09.07v6.77l0,0H45c-.1,0-.1,0-.1-.08Zm-12.51,0,0-.07,0,0,3.14,0c.09,0,.09,0,.09.07v6.77l0,0H32.53c-.1,0-.1,0-.1-.08Zm-12.51,0,0-.07,0,0,3.14,0c.09,0,.09,0,.09.07v6.77l0,0H20c-.1,0-.1,0-.1-.08Zm46.59,22.9v.09c0,.11,0,.23,0,.35s0,.23,0,.34v18h-53V42.57c0-.11,0-.21,0-.31v-.09c0-.11,0-.22,0-.32V33.92h53Z"/></svg>