<svg id="Icons" xmlns="http://www.w3.org/2000/svg" viewBox="0 0 80 80"><title>career</title><path d="M35.58,25.21c.29,2.65,1.87,4.15,4.4,4.15s4.11-1.5,4.41-4.15h.05V23.47h0c-.29-2.65-1.87-4.15-4.41-4.15s-4.11,1.5-4.4,4.15h0v1.74Z"/><path d="M45.14,30.31v-.05h-9c-5.28,0-7.74,2.42-7.74,7.62v8a1.35,1.35,0,0,0,1.35,1.35h1.47a1.35,1.35,0,0,0,1.35-1.35V38.08a3.65,3.65,0,0,1,1.28-3.21,22.09,22.09,0,0,0-.29,4.07v20.4a1.35,1.35,0,0,0,1.35,1.34h2.27a1.35,1.35,0,0,0,1.36-1.34V51.56c0-3.74,0-3.74,1.44-3.74s1.46,0,1.46,3.74v7.78a1.35,1.35,0,0,0,1.35,1.34h2.26a1.35,1.35,0,0,0,1.35-1.34v-8c0-.32,0-.62,0-.88V39.61q0-.31,0-.64a21.23,21.23,0,0,0-.3-4.13,3.62,3.62,0,0,1,1.31,3.23v7.78a1.35,1.35,0,0,0,1.35,1.35h1.47a1.35,1.35,0,0,0,1.35-1.35v-8C51.59,33.16,49.48,30.69,45.14,30.31Z"/><path d="M21.84,42.74a2.83,2.83,0,0,0,1-.87.62.62,0,0,0,0-.46.91.91,0,0,0-.33-.41,2.07,2.07,0,0,0-.65-.3L11.81,38l-.15,0-.15,0-.16,0h-.52l-.36,0-.36.07-.34.1a2.32,2.32,0,0,0-.42.2,1.39,1.39,0,0,0-.3.24.84.84,0,0,0-.17.27.51.51,0,0,0,0,.28l1.35,7.77a.74.74,0,0,0,.19.35,1.33,1.33,0,0,0,.38.28,2.58,2.58,0,0,0,.54.2,3.58,3.58,0,0,0,.65.1h.63l.22,0a2.56,2.56,0,0,0,.89-.21c.46-.25,1.91-1.11,1.91-1.11,4.5,3.43,11.46,8.29,16.93,12.52V53.14c-4.9-3.8-9.62-7-12.63-9.29C19.93,43.85,21.19,43.15,21.84,42.74Z"/><path d="M58.16,42.74a2.83,2.83,0,0,1-1-.87.62.62,0,0,1,0-.46.91.91,0,0,1,.33-.41,2.07,2.07,0,0,1,.65-.3L68.19,38l.15,0,.15,0,.16,0h.52l.36,0,.36.07.34.1a2.32,2.32,0,0,1,.42.2,1.39,1.39,0,0,1,.3.24.84.84,0,0,1,.17.27.51.51,0,0,1,0,.28l-1.35,7.77a.74.74,0,0,1-.19.35,1.33,1.33,0,0,1-.38.28,2.58,2.58,0,0,1-.54.2,3.58,3.58,0,0,1-.65.1h-.63l-.22,0a2.56,2.56,0,0,1-.89-.21c-.46-.25-1.91-1.11-1.91-1.11C59.87,49.87,52.91,54.74,47.44,59V53.14c4.9-3.8,9.62-7,12.63-9.29C60.07,43.85,58.81,43.15,58.16,42.74Z"/></svg>