<svg id="Icons" xmlns="http://www.w3.org/2000/svg" viewBox="0 0 80 80"><title>channels</title><path d="M25.88,54v6.07H14.51V54H25.88m1.92-2.5H12.6a.59.59,0,0,0-.58.59V62a.59.59,0,0,0,.58.59h15.2a.58.58,0,0,0,.58-.59V52.1a.58.58,0,0,0-.58-.59Z"/><path d="M45.68,54v6.07H34.32V54H45.68m1.92-2.5H32.4a.59.59,0,0,0-.58.59V62a.59.59,0,0,0,.58.59H47.6a.58.58,0,0,0,.58-.59V52.1a.58.58,0,0,0-.58-.59Z"/><path d="M65.49,54v6.07H54.13V54H65.49m1.92-2.5H52.21a.59.59,0,0,0-.58.59V62a.59.59,0,0,0,.58.59h15.2A.58.58,0,0,0,68,62V52.1a.58.58,0,0,0-.58-.59Z"/><path d="M49.12,19.92V30.65H30.87V19.92H49.12m1.67-2.5H29.2a.83.83,0,0,0-.83.84v14a.83.83,0,0,0,.83.84H50.79a.82.82,0,0,0,.83-.84v-14a.82.82,0,0,0-.83-.84Z"/><path d="M59.81,40.78H41.55V33.15h-3.1v7.63H20.19a1.55,1.55,0,0,0-1.55,1.55v9.18h3.1V43.88H38.45v7.63h3.1V43.88H58.26v7.63h3.1V42.33A1.55,1.55,0,0,0,59.81,40.78Z"/></svg>