<svg id="Icons" xmlns="http://www.w3.org/2000/svg" viewBox="0 0 80 80"><title>communication</title><path d="M65,42.71c0-7.17-3.94-12.22-13-13-2.51-4.87-7.67-8-16-8.4l-1.22,0h-.64C20.71,21.53,15,28.29,15,38.12a16.8,16.8,0,0,0,2.14,9c1,1.53,4.19,3.94,3.79,7.19-.28,2.31-3.28,4.39-1.29,4.37s6.75-4.79,6.75-4.79a29.64,29.64,0,0,0,7.72,1.05h.64a31,31,0,0,0,6.73-.79,20,20,0,0,0,8.18,1.64h.5a23,23,0,0,0,6-.82s3.92,3.7,5.25,3.73-.91-2.39-.81-4.29c.12-2.15,1.73-2.81,2.75-4.7A14.89,14.89,0,0,0,65,42.71ZM34.7,52.64h-.57c-8.41-.14-13.71-2.93-15.85-8.32a17,17,0,0,1-1-6.19c0-9.48,5.68-14.37,16.89-14.56h.57c11.21.18,16.89,5.08,16.89,14.56a17,17,0,0,1-1.05,6.22C48.4,49.71,43.1,52.5,34.7,52.64Zm27.74-5.11C60.79,51.72,56.66,53.9,50.11,54h-.44a21.29,21.29,0,0,1-5.44-.74c6.63-2.61,9.62-8.07,9.62-15.14a19.56,19.56,0,0,0-1-6.55c6.92.84,10.45,4.57,10.45,11.13A13.19,13.19,0,0,1,62.44,47.53Z"/><path d="M25.27,34.19c-1.79,0-3,1-3.06,3.48h0v.12h0c0,2.44,1.27,3.48,3.06,3.48s3-1,3.06-3.48h0v-.12h0C28.29,35.23,27.07,34.19,25.27,34.19Z"/><path d="M34.91,34.19c-1.79,0-3,1-3.07,3.48h0v.12h0c0,2.44,1.28,3.48,3.07,3.48s3-1,3.06-3.48h0v-.12h0C37.94,35.23,36.7,34.19,34.91,34.19Z"/><path d="M44.55,34.19c-1.79,0-3,1-3.07,3.48h0v.12h0c0,2.44,1.27,3.48,3.07,3.48s3-1,3.06-3.48h0v-.12h0C47.57,35.23,46.34,34.19,44.55,34.19Z"/></svg>