<svg id="Icons" xmlns="http://www.w3.org/2000/svg" viewBox="0 0 80 80"><title>contactbook</title><path d="M17.84,19.36a2,2,0,0,0-2.06,2v1.84H14.2a2.42,2.42,0,0,0-2.43,2.46v3a2.43,2.43,0,0,0,.57,1.56,1.25,1.25,0,0,0,.24.25l0,0a2.41,2.41,0,0,0,1.63.61h1.55v4.83H14.2a2.42,2.42,0,0,0-2.43,2.45v3a2.41,2.41,0,0,0,.56,1.55l.09.12.14.13,0,0a2.47,2.47,0,0,0,1.63.6h1.55V48.6H14.2a2.41,2.41,0,0,0-2.43,2.45v3a2.4,2.4,0,0,0,.6,1.6l.13.15.08.07a2.43,2.43,0,0,0,1.65.62h1.55v2.16a2,2,0,0,0,2.06,2H66.17a2,2,0,0,0,2.06-2V21.39a2,2,0,0,0-2.06-2Zm-3.65,9.36-.05-.09V25.69c0-.09,0-.09.07-.09h6.41a.63.63,0,0,0,0,.09v2.94c0,.09,0,.09-.07.09Zm0,12.67,0-.07V38.37c0-.09,0-.09.07-.09H20.6l0,.08v2.94c0,.1,0,.1-.07.1H16.11Zm0,12.69h0l0,0,0-3c0-.09,0-.09.07-.09h6.39l.05.09V54c0,.09,0,.09-.07.09Zm50.76,3.26H28.58V22.52H64.92Z"/><path d="M41.6,34.44c.33,3,2.09,4.65,4.94,4.65s4.61-1.68,4.94-4.65h.06v-2h-.06c-.33-3-2.09-4.65-4.94-4.65s-4.61,1.68-4.94,4.65h-.05v2Z"/><path d="M50.32,40.34a8,8,0,0,1-7.59,0c-3.57,1.14-4.27,4.39-4.27,10.5,0,.87,0,1.67.05,2.43H54.58c0-.74,0-1.53,0-2.38C54.63,44.84,53.94,41.52,50.32,40.34Z"/></svg>