<svg id="Icons" xmlns="http://www.w3.org/2000/svg" viewBox="0 0 80 80"><title>culture</title><path d="M50.18,50.55c-5.66,0-6.13,3.75-6.12,7.91A1.51,1.51,0,0,0,45.56,60l9.25,0h0a1.51,1.51,0,0,0,1.52-1.51,1.79,1.79,0,0,0,0-.28C56.31,54.13,55.74,50.55,50.18,50.55Z"/><path d="M57.42,41.32c-3.2,0-4.25-1.24-4.54-4.06h-.1c0,4.49.66,6.42,4.64,6.41S62,41.75,62,37.29h-.1C61.65,40.08,60.61,41.32,57.42,41.32Z"/><path d="M67.39,26.21a1.51,1.51,0,0,0-2.48-.65c-3,2.83-7.63,4.14-14.5,4.13,0-.11,0-.2,0-.31.14-7.58-.29-12.36-1.41-16a1.51,1.51,0,0,0-2.48-.65c-3.16,3-8.07,4.27-15.47,4.14s-12.35-1.64-15.4-4.76a1.52,1.52,0,0,0-2.51.56c-1.23,3.56-1.82,8.31-2,15.87-.16,8.7.31,15.42,3.1,20s7.8,6.81,16.07,7h.14a18.79,18.79,0,0,0,2.17,5.85c2.84,4.67,7.79,6.81,16.07,7h.84c15.94,0,18.89-8.43,19.21-26.15C68.94,34.6,68.52,29.83,67.39,26.21ZM16.88,47c-2.55-4.19-2.79-11.31-2.66-18.37a63,63,0,0,1,1.16-12.74C19,18.49,24,19.78,31,19.91s12-1,15.66-3.42a62,62,0,0,1,.73,12.84c-.31,17.43-2.88,23.47-17,23.17C23.3,52.36,19.12,50.67,16.88,47Zm48.9-4.86c-.31,17.44-2.87,23.39-17,23.17-7.12-.13-11.3-1.82-13.54-5.51a15.14,15.14,0,0,1-1.69-4.34c12.91-.78,16.12-8.15,16.74-22.74,6.47,0,11.23-1.07,14.73-3.42A62.56,62.56,0,0,1,65.78,42.13Z"/><path d="M30.61,47.19c5.67,0,6.13-3.75,6.12-7.91a1.51,1.51,0,0,0-1.51-1.51l-9.26,0h0a1.51,1.51,0,0,0-1.51,1.52c0,4.18.48,7.93,6.14,7.93Zm0-1.51Z"/><path d="M37.88,26.82c3.2,0,4.25,1.24,4.54,4.06h.1c0-4.49-.66-6.42-4.64-6.41s-4.62,1.93-4.61,6.39h.1C33.65,28.06,34.69,26.82,37.88,26.82Z"/><path d="M27.81,30.87h.1c0-4.49-.66-6.42-4.64-6.41s-4.62,1.93-4.61,6.39h.09c.28-2.79,1.33-4,4.52-4S27.52,28.06,27.81,30.87Z"/></svg>