<svg id="Icons" xmlns="http://www.w3.org/2000/svg" viewBox="0 0 80 80"><title>digital-work</title><path d="M62.58,28.24A1.62,1.62,0,0,0,61,26.6H19a1.6,1.6,0,0,0-1.61,1.64V42.71c0,.11,0,.21,0,.32s0,.22,0,.33V57.69A1.62,1.62,0,0,0,19,59.33H35.88c0,.32,0,.64,0,1a2.3,2.3,0,0,0,3.93,1.78l.66-.61.23.51c.24.53.47,1.07.68,1.61a2.84,2.84,0,0,0,1.67,1.77,1,1,0,0,0,.33.06H44a.94.94,0,0,0,.39-.08l1.7-.77a2.32,2.32,0,0,0,1.25-3.31l-.87-1.91H61a1.6,1.6,0,0,0,1.61-1.64V43.22c0-.11,0-.21,0-.32s0-.22,0-.33ZM47.5,56.71c-.06.08-.15.17-.48.19L45.47,57l-.7.06a.94.94,0,0,0-.72.46,1,1,0,0,0-.12.64.89.89,0,0,0,.06.21l.06.13.11.24.24.53h0L45.63,62a.78.78,0,0,1,.1.51.77.77,0,0,1-.41.31l-1.52.69h-.22a1.15,1.15,0,0,1-.45-.63c-.22-.57-.47-1.13-.72-1.69l-.74-1.71a.93.93,0,0,0-.33-.4h0a.92.92,0,0,0-1.14.07l-.09.08-.22.19-.44.41-.9.85c-.33.3-.35.19-.43.17s-.34-.08-.34-.58q0-.47,0-.94h0q0-.93,0-1.86V56.7h0V55.3c0-.15,0-.29,0-.43V48.09a.78.78,0,0,1,.18-.38c.24-.18.41-.11.68.13L47.32,56a1.87,1.87,0,0,1,.18.2A.39.39,0,0,1,47.5,56.71Zm12.44,0H49.45A2.25,2.25,0,0,0,49,55.09a3.38,3.38,0,0,0-.38-.42l-1-1c-.35-.32-2-1.84-2.63-2.47l-5.09-4.76a2.33,2.33,0,0,0-3.09-.26,2.59,2.59,0,0,0-.9,1.52,1,1,0,0,0,0,.24l0,7.8c0,.32,0,.64,0,.93H20.06V29.18H59.94Z"/><path d="M30.09,21.34a14,14,0,0,1,19.83,0,1.32,1.32,0,1,0,1.86-1.86,16.65,16.65,0,0,0-23.55,0,1.32,1.32,0,0,0,1.86,1.86Z"/><path d="M31.67,22.93a1.32,1.32,0,0,0,1.86,1.86,9.14,9.14,0,0,1,12.93,0,1.32,1.32,0,0,0,1.86-1.86,11.77,11.77,0,0,0-16.65,0Z"/></svg>