<svg id="Icons" xmlns="http://www.w3.org/2000/svg" viewBox="0 0 80 80"><title>districts</title><path d="M62.24,10.53H17.76a1.55,1.55,0,0,0-1.55,1.55V55.32a1.55,1.55,0,0,0,.1.54s0,.05,0,.07v.79c0,4.26,3.55,7.13,8.83,7.13h4.11c6.94,0,8.5,2.38,9.34,3.66.11.17.2.31.3.44L40,69.47,41.11,68c.09-.13.19-.27.3-.44.84-1.28,2.4-3.66,9.34-3.66h4.11c5.28,0,8.83-2.86,8.83-7.13v-.79s0,0,0-.07a1.55,1.55,0,0,0,.1-.54V12.09A1.55,1.55,0,0,0,62.24,10.53ZM60.89,54h-.1v2.74c0,3.13-3.06,4.24-5.93,4.24H50.75c-6.49,0-9.31,2-10.75,3.6C38.56,62.91,35.75,61,29.25,61H25.14c-2.87,0-5.93-1.11-5.93-4.24V54h-.1V13.43H60.89Z"/></svg>