<svg id="Icons" xmlns="http://www.w3.org/2000/svg" viewBox="0 0 80 80"><title>diversity</title><path d="M18.88,18.9c.42,3.78,2.67,5.93,6.29,5.93S31,22.68,31.46,18.9h.07V16.42h-.07c-.42-3.79-2.67-5.93-6.29-5.93s-5.87,2.14-6.29,5.93h-.07V18.9Z"/><path d="M54.82,24.82c4,0,6.28-2.57,6.36-7.07,0-.1,0-.18,0-.24-.08-4.47-2.4-7-6.35-7s-6.29,2.57-6.36,7.07c0,.1,0,.18,0,.24C48.54,22.26,50.86,24.82,54.82,24.82Zm-4.07-7.21v0c.05-3.23,1.39-4.8,4.07-4.8s4,1.57,4.07,4.79v.18c-.05,3.23-1.39,4.8-4.07,4.8s-4-1.57-4.08-4.78Z"/><path d="M61.22,26.11l-.2,0H49.33c-4.55,0-7.62,1.27-9.35,3.9-1.5-2.25-4-3.51-7.47-3.82v-.08H19.67c-7.53,0-11,3.46-11,10.88V48.35a1.93,1.93,0,0,0,1.93,1.92h2.09a1.93,1.93,0,0,0,1.93-1.92V37.25c0-2.2.61-3.73,1.83-4.58a31.22,31.22,0,0,0-.41,5.8V67.59a1.93,1.93,0,0,0,1.93,1.92h3.24a1.93,1.93,0,0,0,1.93-1.92V56.5c0-5.33,0-5.33,2.06-5.34s2.09,0,2.09,5.34v11.1a1.92,1.92,0,0,0,1.93,1.92h3.24a1.93,1.93,0,0,0,1.93-1.92V56.17c0-.45,0-.88,0-1.25V38.53a30.46,30.46,0,0,0-.43-5.9c1.24.83,1.54,2.3,2.18,4.55l2,11.16c.37,1.13.87,1.92,1.93,1.92h.52a2.15,2.15,0,0,0,2.39-2.19l.62-8.45A7.69,7.69,0,0,1,45.86,35a21.17,21.17,0,0,0-.2,4.62v28a1.93,1.93,0,0,0,1.93,1.92h3.24a1.93,1.93,0,0,0,1.93-1.92V56.5c0-5.33,0-5.33,2.06-5.34s2.08,0,2.08,5.34v11.1a1.93,1.93,0,0,0,1.93,1.92h3.24A1.93,1.93,0,0,0,64,67.59V56.17c0-.45,0-.87,0-1.25V40.51c0-.27,0-.55,0-.83a30.34,30.34,0,0,0-.43-5.89c1.24.83,1.87,2.38,1.87,4.62v10a1.93,1.93,0,0,0,1.93,1.92h2.09a1.93,1.93,0,0,0,1.93-1.92V36.93C71.38,29.92,68.06,26.38,61.22,26.11ZM69.1,48H67.71V38.4c0-6.15-4-7.34-5.78-7.56a1.14,1.14,0,0,0-1.18,1.62c.67,1.42.94,3.51.94,7.21,0,.3,0,.59,0,.87,0,0,0,.06,0,.09V54.95c0,.39,0,.8,0,1.22V67.23H59.19V56.5c0-6.17-.4-7.61-4.37-7.63s-4.34,1.46-4.34,7.63V67.23H47.94V39.62c0-3.63.27-5.77.92-7.17a1.14,1.14,0,0,0-1.2-1.61c-1.71.24-4.79.25-6.39,8h0l.14.18-.48-4.55c0-1.53-.19-.41.16-1.52l.5-1.22c1.41-2.51,3.16-3.4,7.73-3.4H61c5.68.18,8.11,2.73,8.11,8.54V48Z"/></svg>