<svg id="Icons" xmlns="http://www.w3.org/2000/svg" viewBox="0 0 80 80"><title>education</title><path d="M68.77,30.73l-24.38-19A6.55,6.55,0,0,0,40,10.31a6.07,6.07,0,0,0-4.42,1.45l-24.33,19a1.54,1.54,0,1,0,1.89,2.43l24.36-19A3.14,3.14,0,0,1,40,13.39a3.53,3.53,0,0,1,2.53.8l24.36,19a1.54,1.54,0,1,0,1.89-2.43Z"/><path d="M52.79,35C46.58,35,42.51,36.33,40,39.33c-2.59-3-6.7-4.36-13-4.36-5.22,0-8.84.94-11.38,3A1.54,1.54,0,0,0,15,39.13V65.77a1.49,1.49,0,0,0,.11.53.77.77,0,0,0,.06.14,1.58,1.58,0,0,0,.23.35l.08.09a1.57,1.57,0,0,0,.39.28h0l.12,0a1.53,1.53,0,0,0,.43.09l.08,0H35a5.62,5.62,0,0,0,5,2.38,5.62,5.62,0,0,0,5-2.38h18a1.53,1.53,0,0,0,2-1.45V39.23a1.54,1.54,0,0,0-.58-1.2C61.8,35.94,58.11,35,52.79,35ZM38.74,64.78C36.13,62.61,32.36,61.6,27,61.6a22.2,22.2,0,0,0-8.89,1.47V39.92C20.08,38.64,22.93,38,27,38c6.31,0,9.78,1.42,11.62,4.74a1.4,1.4,0,0,0,.11.16V64.78Zm23.15-1.64a22.23,22.23,0,0,0-9.09-1.54c-5.29,0-9,1-11.59,3.15V42.94a1.39,1.39,0,0,0,.13-.17C43.11,39.46,46.54,38,52.79,38c4.16,0,7.08.63,9.09,2V63.14Z"/></svg>