<svg id="Icons" xmlns="http://www.w3.org/2000/svg" viewBox="0 0 80 80"><title>ewindow-small</title><path d="M52.94,24.47a.86.86,0,1,0-.42,1.67c4.75,1.2,7,4.18,7.67,10.31a.86.86,0,0,0,.85.76h.1a.86.86,0,0,0,.76-1C61.12,29.47,58.36,25.83,52.94,24.47Z"/><path d="M52.85,20.31A.86.86,0,1,0,52.6,22C60,23.1,63.14,26.93,64.06,36.15a.86.86,0,0,0,.85.77H65a.86.86,0,0,0,.77-.94C64.94,27.59,62.42,21.71,52.85,20.31Z"/><path d="M53.71,16.08a.85.85,0,0,0-1,.76.86.86,0,0,0,.76,1c10.2,1.16,14.21,6,15.3,18.32a.86.86,0,0,0,.86.78h.08a.86.86,0,0,0,.78-.93C69.57,25.07,66.34,17.52,53.71,16.08Z"/><path d="M58.22,59.8H53.64C57.2,57.37,58,52.48,58,44.62c0-11.9-1.73-16.69-12.2-16.69H24.91c-10.47,0-12.2,4.79-12.2,16.69,0,7.86.77,12.75,4.33,15.17H12.47c-1.69,0-3,.41-3,.92V63c0,.51,1.31.92,3,.92H58.22c1.74,0,3-.41,3-.92V60.72C61.22,60.21,60,59.8,58.22,59.8Zm-12.54-1H25c-7.85,0-9.43-2.38-9.43-14.16,0-11.63,1.48-13.83,9.33-13.83H45.78c7.85,0,9.33,2.2,9.33,13.83C55.11,56.4,53.52,58.78,45.67,58.78Z"/></svg>