<svg id="Icons" xmlns="http://www.w3.org/2000/svg" viewBox="0 0 80 80"><title>ewindow</title><path d="M69.39,57.95a4.41,4.41,0,0,0-.47-.52l-1.29-1.21V42c0-.14,0-.26,0-.4s0-.27,0-.41V23.29a2,2,0,0,0-2-2H13.31a2,2,0,0,0-2,2V41.34c0,.14,0,.26,0,.4s0,.27,0,.41V60a2,2,0,0,0,2,2H53q0,1.18,0,2.36a2.87,2.87,0,0,0,4.9,2.21l.82-.77.28.64c.29.67.59,1.33.85,2A3.54,3.54,0,0,0,62,70.75a1.18,1.18,0,0,0,.41.07h.78a1.18,1.18,0,0,0,.48-.1l2.12-1a2.89,2.89,0,0,0,1.56-4.13l-1.35-3,1.16-.1a3,3,0,0,0,2.27-1.16A2.83,2.83,0,0,0,69.39,57.95ZM54.13,46.87A3.24,3.24,0,0,0,53,48.77a1.2,1.2,0,0,0,0,.3v8.6l0,.23c0,.11,0,.22,0,.33v.57H14.58V42.08c0-.1,0-.2,0-.29V41.7c0-.1,0-.21,0-.3V24.53H64.34V41.25c0,.11,0,.22,0,.33s0,.22,0,.32V53.14L58,47.2A2.9,2.9,0,0,0,54.13,46.87ZM67.54,60c-.08.1-.19.21-.59.24L65,60.4l-.87.08a1.17,1.17,0,0,0-1,1.63l.07.16.13.3,1.83,4a1,1,0,0,1,.12.63,1,1,0,0,1-.51.39l-1.89.86h-.28a1.43,1.43,0,0,1-.56-.79c-.28-.71-.59-1.41-.89-2.11l-.93-2.14A1.17,1.17,0,0,0,58.41,63l-.12.1-.27.24-.55.51-1.13,1.06c-.41.38-.44.23-.53.21s-.43-.1-.43-.72q0-1.75,0-3.5V58.21c0-.18,0-.36,0-.54V49.23a1,1,0,0,1,.23-.48c.29-.22.52-.14.84.16L67.31,59.14a2.07,2.07,0,0,1,.23.25A.49.49,0,0,1,67.54,60Z"/><path d="M44.87,48.53a.74.74,0,0,1-.76-.73V47c-1.54,1.29-2.43,1.66-3.72,1.66-3.05,0-4.23-2.1-4.23-6.59,0-5.23,1.6-6.44,4.23-6.44h3.69a2.16,2.16,0,0,0-2.48-2.33H37.16c-2.42,0-2.51,1.65-2.51,3.24V46.82c0,1.59.09,3.24,2.51,3.24H47.49a.86.86,0,0,1,.86.88v2a.86.86,0,0,1-.86.88H37c-5.17,0-6.44-3.49-6.44-7V36.5c0-3.51,1.41-7,6.59-7h4.6c5.19,0,6.59,3.51,6.59,7V47.8a.73.73,0,0,1-.76.73Zm-.76-5.73V39.38H41.27c-1.06,0-1.33.83-1.33,2.62,0,2.53.54,2.84,1.24,2.84C42.45,44.84,43.19,43.81,44.12,42.79Z"/></svg>