<svg id="Icons" xmlns="http://www.w3.org/2000/svg" viewBox="0 0 80 80"><title>folder</title><path d="M67.46,34.53a2.6,2.6,0,0,0-2.22-1.07H58.85v-3.3a3,3,0,0,0-3-3H32.54s-.1,0-.1-.13c0-5.49-4-6.62-10-6.62h-.34c-6,0-10,1.12-10,6.61V56.59a3,3,0,0,0,1,2.21,2.65,2.65,0,0,0,2,.84H55.83l.19,0,.35,0,.18,0a3.67,3.67,0,0,0,2.64-2.06l8.45-20.76A2.31,2.31,0,0,0,67.46,34.53ZM22.13,23.29h.34c7,0,7,1.79,7,3.7a3,3,0,0,0,3,3.05h23.3s.1,0,.1.13v3.3H24.59a3.76,3.76,0,0,0-3.42,2.16L15.09,50.56V27C15.09,25.08,15.09,23.29,22.13,23.29ZM56.49,56.37a1,1,0,0,1-.71.34h-40l8.13-20a1,1,0,0,1,.72-.34h40Z"/></svg>