<svg id="Icons" xmlns="http://www.w3.org/2000/svg" viewBox="0 0 80 80"><title>helpcenter</title><path d="M41.54,21.44l-1.22,0h-.64c-13.33.22-19,7-19,16.74a16.75,16.75,0,0,0,2.13,9c1,1.52,4.17,3.92,3.78,7.16-.28,2.3-3.26,4.37-1.29,4.35S32,53.84,32,53.84a29.52,29.52,0,0,0,7.69,1h.64c13.32-.22,19-7,19-16.74C59.35,28.66,54,22,41.54,21.44ZM40.28,52.6h-.57c-8.37-.14-13.66-2.92-15.78-8.28a17,17,0,0,1-1-6.17c0-9.44,5.66-14.31,16.82-14.49h.57c11.16.18,16.82,5.06,16.82,14.49a16.92,16.92,0,0,1-1,6.19C53.92,49.68,48.65,52.46,40.28,52.6Z"/><path d="M40.67,29.9c3.56,0,4.53,2.41,4.53,4.82v.39c0,2.91-1.33,4.33-3.33,4.72-1,.19-1.21.92-1.21,1.74a.59.59,0,0,1-.6.59h-1.5a.59.59,0,0,1-.6-.59c0-2,.82-3.82,3.19-4.27,1.2-.2,1.25-1.21,1.25-2.18v-.39c0-1.09-.06-2.22-1.72-2.22H39.44c-1.66,0-1.82,1.13-1.82,2.22a.59.59,0,0,1-.59.6H35.41a.59.59,0,0,1-.59-.6h0c0-2.41,1-4.82,4.53-4.82Zm-.6,14.75a.59.59,0,0,1,.59.6v1.5a.59.59,0,0,1-.59.6H38.54a.59.59,0,0,1-.59-.6v-1.5a.59.59,0,0,1,.59-.6Z"/></svg>