<svg id="Icons" xmlns="http://www.w3.org/2000/svg" viewBox="0 0 80 80"><title>ict</title><path d="M29.47,43.57h3.26a.43.43,0,0,0,.44-.44v-1a.43.43,0,0,0-.44-.44h-.6V33.25h.6a.43.43,0,0,0,.44-.44v-1a.43.43,0,0,0-.44-.44H29.47a.44.44,0,0,0-.43.44v1a.44.44,0,0,0,.43.44h.6v8.41h-.6a.44.44,0,0,0-.43.44v1A.44.44,0,0,0,29.47,43.57Z"/><path d="M38.68,43.65a5.58,5.58,0,0,0,3.91-1.38.43.43,0,0,0,.08-.62l-.6-.82a.41.41,0,0,0-.61-.11,4.44,4.44,0,0,1-2.56.92c-1.7.06-2.37-.54-2.37-4.33s.63-4.08,2.32-4.08h2.42a.43.43,0,0,0,.44-.44v-1a.43.43,0,0,0-.44-.44h-2.4c-3.84,0-4.48,1.68-4.48,6S35,43.65,38.68,43.65Z"/><path d="M43.5,33.25h3v9.89a.43.43,0,0,0,.44.44h1.18a.43.43,0,0,0,.44-.44V33.25h3A.43.43,0,0,0,52,32.8v-1a.43.43,0,0,0-.44-.44H43.5a.44.44,0,0,0-.44.44v1A.44.44,0,0,0,43.5,33.25Z"/><path d="M61,21.1H19a1.58,1.58,0,0,0-1.58,1.58V52.32A1.58,1.58,0,0,0,19,53.9H32.47v2.46H30.62a1.3,1.3,0,1,0,0,2.54H49.38a1.3,1.3,0,1,0,0-2.54H47.53V53.9H61a1.58,1.58,0,0,0,1.58-1.58V22.68A1.58,1.58,0,0,0,61,21.1ZM59.94,51.27H20.06V23.73H59.94Z"/></svg>