<svg id="Icons" xmlns="http://www.w3.org/2000/svg" viewBox="0 0 80 80"><title>jobs</title><path d="M46.47,10.52H20.39a2.11,2.11,0,0,0-2.14,2.1V67.38a2.08,2.08,0,0,0,2.14,2.1H59.61a2.11,2.11,0,0,0,2.14-2.1V25.8ZM58.31,66H21.69V14H43.87V26.34A2.09,2.09,0,0,0,46,28.44h12.3V66Z"/><path d="M31.9,27.81a.4.4,0,0,1-.07.57,5.14,5.14,0,0,1-3.6,1.27c-3.41,0-4-1.91-4-5.79s.59-5.56,4.13-5.56h2.21a.4.4,0,0,1,.4.41v.95a.4.4,0,0,1-.4.41H28.37c-1.56,0-2.13.4-2.13,3.76s.62,4,2.18,4A4.11,4.11,0,0,0,30.78,27a.38.38,0,0,1,.56.1Z"/><path d="M39.8,18.29a.4.4,0,0,1,.41.4v3.86a.74.74,0,0,1-.11.28L37.48,29.3a.4.4,0,0,1-.39.27H35.74a.41.41,0,0,1-.39-.27l-2.61-6.47c0-.08-.11-.17-.11-.28V18.7a.4.4,0,0,1,.41-.4h1.09a.4.4,0,0,1,.41.4v2.9l1.89,4.67L38.3,21.6V18.7a.4.4,0,0,1,.41-.4Z"/><path d="M54.14,37.6H26.63a1.23,1.23,0,1,1,0-2.46H54.14a1.23,1.23,0,1,1,0,2.46Z"/><path d="M54.14,45.6H26.63a1.23,1.23,0,1,1,0-2.46H54.14a1.23,1.23,0,1,1,0,2.46Z"/><path d="M54.14,53.61H26.63a1.23,1.23,0,1,1,0-2.46H54.14a1.23,1.23,0,1,1,0,2.46Z"/><path d="M54.14,61.61H26.63a1.23,1.23,0,1,1,0-2.46H54.14a1.23,1.23,0,0,1,0,2.46Z"/></svg>