<svg id="Icons" xmlns="http://www.w3.org/2000/svg" viewBox="0 0 80 80"><title>leisure</title><path d="M59,33.08c0-6.32-1.34-10.5-7.67-11.52,0-.61,0-1.26,0-2,0-7.45-1.84-11.77-11.26-11.77h-.23c-9.35,0-11.17,4.31-11.17,11.75,0,.71,0,1.37,0,2-6.36,1-7.67,5-7.67,11.51,0,6.17,1.2,10.23,6.56,11.58L36.85,70A3.33,3.33,0,0,0,40,72.19h0A3.34,3.34,0,0,0,43.15,70l9.26-25.38C57.74,43.22,59,39.07,59,33.08ZM34.17,52.78H45.85l-1.45,4H35.62ZM40,68.84l-3.17-8.69h6.32Zm7-19.44H32.94l-1.57-4.3.85,0h.32c3.3,0,5.72-.55,7.46-1.71,1.74,1.16,4.16,1.71,7.47,1.71h.32l.85,0Zm.71-7.65h-.32c-3.18,0-5.16-.53-6.24-1.68L40,38.76l-1.23,1.31c-1.08,1.15-3.06,1.68-6.23,1.68h-.32c-6.72,0-7.8-2.06-7.8-8.7,0-6.37,1.22-8,6.22-8.33L32,24.65v0h.47c3.25,0,5.26.5,6.33,1.58l2.4-2.37c-1.77-1.79-4.46-2.59-8.73-2.59h-.37c0-.53,0-1.11,0-1.74,0-6.49,1-8.37,7.8-8.37h.23c6.84,0,7.88,1.89,7.88,8.39a26.67,26.67,0,0,1-.17,3.26l-.22,1.78,1.79.12c5,.33,6.23,2,6.23,8.34S54.45,41.75,47.78,41.75Z"/></svg>