<svg id="Icons" xmlns="http://www.w3.org/2000/svg" viewBox="0 0 80 80"><title>link</title><path d="M43.93,49.89c-2.89,0-6-1.42-9.47-4.91A5.06,5.06,0,0,1,33,41.53a4.35,4.35,0,0,1,1.45-3.11,2.11,2.11,0,0,1,2.9,3.06.69.69,0,0,0-.14.17,1.51,1.51,0,0,0,.2.36C43,47.57,46,47,54.15,38.84c3.07-3.08,6-6.3,6.6-9.06.35-1.62.19-3.8-3.62-7.61-5.54-5.54-8.47-5-16.5,3-.18.17-.69.75-1.18,1.29s-.9,1-1.06,1.16a2.11,2.11,0,1,1-3-2.95l.94-1c.55-.61,1.13-1.25,1.33-1.45,7.22-7.22,13.46-12,22.47-3,2.56,2.56,5.83,6.53,4.76,11.48-.78,3.61-3.66,7.07-7.74,11.15C52.64,46.31,48.53,49.89,43.93,49.89Z"/><path d="M29.86,65.72c-3.28,0-6.56-1.69-10-5.15C10.77,51.51,15.67,45.16,23,37.81c8.44-8.44,13.94-11,22.42-3.08A4.86,4.86,0,0,1,47,38.15a4.76,4.76,0,0,1-1.28,3.4,2.11,2.11,0,0,1-3.06-2.91.58.58,0,0,0,.12-.38.63.63,0,0,0-.24-.46c-5.81-5.47-8.6-5-16.55,3C17.79,49,17.23,52,22.82,57.59c2.75,2.75,5.14,4,7.34,3.9,2.68-.15,5.6-2.34,9.21-6.88.9-1.13,1.28-1.62,1.47-1.87a4.42,4.42,0,0,1,.5-.59,2.11,2.11,0,0,1,3,2.93l-.18.22c-.19.25-.58.76-1.51,1.93-4.47,5.63-8.25,8.24-12.27,8.47Z"/></svg>