<svg id="Icons" xmlns="http://www.w3.org/2000/svg" viewBox="0 0 80 80"><title>map-small</title><path d="M66.45,13.68a1.41,1.41,0,0,0-1.17-.3c-.42.08-.7.14-16.91,12.69L33.13,14.21a4.28,4.28,0,0,0-2.83-.92,4,4,0,0,0-2.85.94L13.59,25A1.43,1.43,0,0,0,13,26.15V63.59a1.42,1.42,0,0,0,2.29,1.11l13.9-10.84a1.27,1.27,0,0,1,1.07-.31,1.48,1.48,0,0,1,1.11.34L47.49,66.42a1.42,1.42,0,0,0,1.74,0c6.06-4.69,15.92-12.28,17-13A1.41,1.41,0,0,0,67,52.21V14.77A1.41,1.41,0,0,0,66.45,13.68Zm-50.57,47V26.85l13-10.15V50.88a3.9,3.9,0,0,0-1.44.78ZM31.72,50.9V16.69L46.95,28.55V62.4L33.13,51.64A4.43,4.43,0,0,0,31.72,50.9Zm32.4.57c-1.44,1-5,3.72-14.35,10.94V28.56c4.6-3.56,11-8.52,14.35-11Z"/></svg>