<svg id="Icons" xmlns="http://www.w3.org/2000/svg" viewBox="0 0 80 80"><title>map</title><path d="M65.58,15.62a1.49,1.49,0,0,0-1.25-.31c-.43.09-.68.13-15.49,11.6L35,16.11a4.11,4.11,0,0,0-2.73-.89,3.82,3.82,0,0,0-2.73.9L14.46,27.69a1.5,1.5,0,0,0-.59,1.19v34.4a1.5,1.5,0,0,0,2.41,1.19l15.1-11.61c.27-.22.34-.24.85-.24a1.2,1.2,0,0,1,.9.27L47.92,64.4a1.5,1.5,0,0,0,1.84,0c5.54-4.29,14.57-11.23,15.56-11.89a1.5,1.5,0,0,0,.81-1.33V16.78A1.5,1.5,0,0,0,65.58,15.62ZM31.15,49.71a3.62,3.62,0,0,0-1.63.8L16.87,60.24V29.62l14.27-11Zm32,.7c-1.42,1-4.78,3.56-13.2,10.06V29.87c4.1-3.17,10-7.71,13.2-10.13Z"/></svg>