<svg id="Icons" xmlns="http://www.w3.org/2000/svg" viewBox="0 0 80 80"><title>media</title><path d="M48,38.32s-10.68-6.51-12-7.37c-1-.63-1.61,0-1.61.68V46.3c0,.61.63,1.27,1.92.44S48,39.61,48,39.61a.77.77,0,0,0,.35-.65A.83.83,0,0,0,48,38.32Z"/><path d="M64.94,55.11H60c3.87-2.64,4.72-8,4.72-16.54,0-13-1.88-18.19-13.29-18.19H28.63c-11.41,0-13.3,5.22-13.3,18.19,0,8.57.84,13.9,4.72,16.54h-5c-1.84,0-3.27.45-3.27,1v2.5c0,.55,1.43,1,3.27,1H64.93c1.9,0,3.27-.45,3.27-1v-2.5C68.21,55.56,66.83,55.11,64.94,55.11ZM51.26,54H28.74c-8.55,0-10.28-2.6-10.28-15.43,0-12.68,1.62-15.07,10.17-15.07H51.38c8.55,0,10.17,2.39,10.17,15.07C61.55,51.41,59.82,54,51.26,54Z"/></svg>