<svg id="Icons" xmlns="http://www.w3.org/2000/svg" viewBox="0 0 80 80"><title>mobility</title><polygon points="21.72 22.77 20.16 21.65 18.6 22.77 18.6 25.15 21.72 25.15 21.72 22.77"/><path d="M60.79,53.08c0-.61,0-1.21-1-1.2l-1.45,0v2.34h1.45C60.78,54.25,60.79,53.66,60.79,53.08Z"/><path d="M66.34,48.11H61.17V45.2c0-4.57-2.29-13.2-10.95-13.2-7.9,0-9.67,4.88-11.09,8.8-.17.46-.33.92-.51,1.37l-.4,1.06c-1.58,4.18-3.36,8.92-9.64,8.92-7,0-7.09-8.52-7.09-8.88V32.43L26.8,28.5A.59.59,0,0,0,27,28V18.66s0-.39-.33-.39H13.72a.38.38,0,0,0-.4.39V28a.58.58,0,0,0,.2.51l5.31,3.93V43.25c0,4,2,11.54,9.75,11.54,8.12,0,10.53-6.4,12.13-10.64l.39-1c.18-.47.36-.95.53-1.43,1.37-3.78,2.56-7,8.59-7,8.2,0,8.29,10.11,8.29,10.54v2.91H53.4a.38.38,0,0,0-.4.39V61.34a.41.41,0,0,0,.36.4H66.3a.39.39,0,0,0,.38-.4V48.5S66.71,48.11,66.34,48.11ZM18.6,26.6v2.28a.33.33,0,0,1-.33.33h-.89a.33.33,0,0,1-.34-.33V22.16a.27.27,0,0,1,.09-.23L20,19.83a.28.28,0,0,1,.2-.06.29.29,0,0,1,.2.06l2.83,2.1a.27.27,0,0,1,.09.23v6.72a.33.33,0,0,1-.34.33h-.89a.33.33,0,0,1-.34-.33V26.6Zm41.75,33H57.14a.33.33,0,0,1-.33-.33V50.7a.33.33,0,0,1,.33-.33h2.74c2,0,2.54,1.34,2.54,2.69a3.23,3.23,0,0,1-.4,1.68,2.7,2.7,0,0,1,.87,2.21C62.88,58.29,62.34,59.63,60.35,59.63Z"/><path d="M60.3,55.75c-1.15,0-1.67,0-1.93,0V58.1l1.93,0c.94,0,1-.59,1-1.2S61.26,55.75,60.3,55.75Z"/></svg>