<svg id="Icons" xmlns="http://www.w3.org/2000/svg" viewBox="0 0 80 80"><title>my-time</title><path d="M51.79,48.74,43,39.87s0,0,0,0h0v-.08h0a2.41,2.41,0,0,0-.54-1.62V25.57a1.65,1.65,0,0,0-3.3,0V38.14a2.4,2.4,0,0,0-.54,1.63v.07h0a2,2,0,0,0,1.93,2.24l8.86,9a1.65,1.65,0,1,0,2.35-2.32Z"/><path d="M40.84,16.65A23.32,23.32,0,0,0,20.59,28.4l-2.22-.77a1.77,1.77,0,0,0-2.54,2.07l1.29,9.61c.23,1.71,1.43,2.12,2.67.93l7-6.74a1.77,1.77,0,0,0-.71-3.2l-2.27-.79a20.06,20.06,0,1,1-2,16.75A1.63,1.63,0,0,0,19.71,45a1.81,1.81,0,0,0-1.09,2A23.34,23.34,0,1,0,40.84,16.65Z"/></svg>