<svg id="Icons" xmlns="http://www.w3.org/2000/svg" viewBox="0 0 80 80"><title>news</title><path d="M39.5,12.94a3.93,3.93,0,0,0-2.28-1.44.52.52,0,0,0-.37.13L34.94,13.4c-.42.39,0,1.6,1.1,2.74l2.29,2.48L12.89,58.27l-1.3-1.4a1,1,0,0,0-.77-.35.89.89,0,0,0-.62.24L8.49,58.34a1,1,0,0,0,0,1.4L19.1,71.21a1.05,1.05,0,0,0,.77.36.91.91,0,0,0,.61-.24l1.72-1.59a1,1,0,0,0,0-1.4l-1.41-1.53L29,62.35c2.21,4.14,4.5,7.54,8.44,7.54a11,11,0,0,0,5.09-1.5c7.41-3.93,5.53-9,2.5-14.73l17.1-9.27,2.4,2.6a3.89,3.89,0,0,0,2.27,1.44.54.54,0,0,0,.37-.13l1.91-1.77c.42-.39,0-1.57-1.1-2.74ZM40.91,65.3c-3.86,2-5.43,1.7-8.81-4.62L42,55.33C45.36,61.75,44.79,63.24,40.91,65.3ZM18.34,64.16,17,62.66,51.64,33l8.06,8.72Z"/><path d="M61.16,21.91a.81.81,0,0,0,1.14.15l7.09-5.45a.82.82,0,0,0,.15-1.14l-1.35-1.76A.82.82,0,0,0,67,13.56L60,19a.81.81,0,0,0-.15,1.14Z"/><path d="M71.78,29.47a.82.82,0,0,0-.82-.81l-6.4-.06a.81.81,0,0,0-.8.82l0,2.21a.82.82,0,0,0,.82.81L71,32.5a.81.81,0,0,0,.81-.82Z"/><path d="M50.87,16.12l2.1.71a.82.82,0,0,0,1-.51l1.94-6.1a.81.81,0,0,0-.51-1l-2.1-.71a.82.82,0,0,0-1,.51l-1.94,6.1A.81.81,0,0,0,50.87,16.12Z"/></svg>