<svg id="Icons" xmlns="http://www.w3.org/2000/svg" viewBox="0 0 80 80"><title>news-small</title><path d="M39.5,12.95c-1.05-1.14-2.21-1.7-2.64-1.31L34.95,13.4c-.43.39,0,1.6,1.1,2.73l2.29,2.48L12.89,58.27l-1.3-1.4a1,1,0,0,0-1.39-.1L8.49,58.34a1,1,0,0,0,0,1.4L19.1,71.21a1,1,0,0,0,1.38.12l1.72-1.59a1,1,0,0,0,0-1.4l-1.41-1.53L29,62.36c2.22,4.14,4.5,7.55,8.45,7.55a11,11,0,0,0,5.09-1.5c7.42-3.94,5.54-9,2.5-14.74l17.09-9.27,2.4,2.6c1.08,1.17,2.22,1.7,2.64,1.32l1.92-1.77c.43-.39,0-1.56-1.1-2.73Zm1.41,52.34c-3.86,2-5.42,1.7-8.8-4.61L42,55.34C45.35,61.75,44.78,63.24,40.91,65.29ZM18.32,64.15l-3-3.2L40.81,21.29,59.68,41.72Z"/><path d="M61.16,21.91a.81.81,0,0,0,1.14.15l7.09-5.45a.81.81,0,0,0,.15-1.14l-1.35-1.76A.82.82,0,0,0,67,13.56L60,19a.81.81,0,0,0-.15,1.14Z"/><path d="M71.78,29.47a.81.81,0,0,0-.82-.8l-6.4-.06a.81.81,0,0,0-.81.82l0,2.21a.82.82,0,0,0,.82.81L71,32.5a.82.82,0,0,0,.81-.82Z"/><path d="M50.87,16.12l2.1.71a.81.81,0,0,0,1-.51l1.94-6.1a.81.81,0,0,0-.51-1l-2.1-.71a.82.82,0,0,0-1,.51l-1.94,6.1A.81.81,0,0,0,50.87,16.12Z"/></svg>