<svg id="Icons" xmlns="http://www.w3.org/2000/svg" viewBox="0 0 80 80"><title>ocmw-medewerkers</title><path d="M25.24,70.3v-.48l.24.11c.58.26,1.19.53,1.86.79a17,17,0,0,0,3.7,1c.82.11,3.58.25,4.58.25h1.3c.47,0,.94,0,1.41-.06A4.28,4.28,0,0,0,44.4,70.3H47.1A3.42,3.42,0,0,0,50,65.07a3.42,3.42,0,0,0,1.53-5.81,3.41,3.41,0,0,0,0-5.29,3.42,3.42,0,0,0-2.34-5.91H48a2.81,2.81,0,0,0-.13-2.68c-.63-.85-1.65-.87-2.93-.76V43a18.06,18.06,0,1,0-8.55,0v1.27l-.65-.15a.94.94,0,0,0-.38,0,33,33,0,0,0-5,1.43,19.35,19.35,0,0,0-5,2.46.86.86,0,0,0-.85-.77H0v1.71H23.53V69.45H0v1.71H24.38A.85.85,0,0,0,25.24,70.3Zm15.39.55a2.58,2.58,0,0,1-2.57-2.57V56.83l.29-.42a11.83,11.83,0,0,0,1.7-4.16,9.87,9.87,0,0,0,2.38.05,3.46,3.46,0,0,0,.49,1.09,3.42,3.42,0,0,0-1.21,5.72A3.41,3.41,0,0,0,42,64.63a3.41,3.41,0,0,0,.7,5.12A2.56,2.56,0,0,1,40.63,70.85Zm6.47-2.26H44.6A1.76,1.76,0,0,1,44,68.5a1.71,1.71,0,0,1-.85-2.59,1.74,1.74,0,0,1,.86-.65,1.69,1.69,0,0,1,.55-.09H47.1a1.71,1.71,0,0,1,0,3.42Zm2.09-5.13H43.88a1.71,1.71,0,0,1,0-3.42h5.31a1.71,1.71,0,0,1,0,3.42Zm.18-5.13H44.05a1.71,1.71,0,0,1-.86-3.19,1.68,1.68,0,0,1,.86-.23h5.31a1.71,1.71,0,0,1,0,3.42Zm-.18-8.55a1.71,1.71,0,0,1,0,3.42H45.76a1.72,1.72,0,0,1-1.65-1.26,6.21,6.21,0,0,0,.8-.33,5.63,5.63,0,0,0,1.45-1,6.73,6.73,0,0,0,.68-.79ZM29.69,36.41a15.48,15.48,0,1,1,21.89,0,15.32,15.32,0,0,1-6.67,3.92c-.28.09-.57.16-.86.22l-.86.17a15.67,15.67,0,0,1-5.13,0l-.86-.17c-.29-.06-.57-.14-.86-.22A15.32,15.32,0,0,1,29.69,36.41ZM43.2,43.32v1.47l-.58,0a22.47,22.47,0,0,1-4.55-.25V43.32a18,18,0,0,0,5.13,0Zm-18,6.9.22-.21a15,15,0,0,1,5.43-2.89,31,31,0,0,1,4.6-1.31l.88.2.86.17.86.14a24,24,0,0,0,4.64.22l.49,0,.86-.07.46,0,.4,0c.71-.07,1.44-.11,1.56,0s0,.92-.36,1.67a5.23,5.23,0,0,1-.95,1.28,2.66,2.66,0,0,1-.26.23,4.07,4.07,0,0,1-.86.54,4.5,4.5,0,0,1-.86.31,6.43,6.43,0,0,1-.73.15,8.37,8.37,0,0,1-2.91-.16.83.83,0,0,0-.69.12.86.86,0,0,0-.37.6A10.11,10.11,0,0,1,37.21,55c-.09.16-.18.32-.29.47s-.37.53-.57.78a10,10,0,0,1-3.18,2.6A.85.85,0,0,0,32.82,60a.84.84,0,0,0,.76.46.89.89,0,0,0,.4-.09,11.9,11.9,0,0,0,2.38-1.65v9.56a4.23,4.23,0,0,0,.47,2h-1.2c-1,0-3.65-.13-4.34-.23A15.41,15.41,0,0,1,28,69.12c-.63-.24-1.21-.5-1.78-.76L25.24,68Z"/><circle cx="20.6" cy="66.26" r="1.48" transform="translate(-48.75 68.37) rotate(-74.47)"/><path d="M50.64,34.78a.86.86,0,0,0,.22-.67,8.33,8.33,0,0,0-3.58-6.29,7.65,7.65,0,0,0-2.17-1,.87.87,0,0,0-.24,0h0a.85.85,0,0,0-.5.17,6.22,6.22,0,0,1-3.62,1.3h-.18A6.1,6.1,0,0,1,36.84,27a.88.88,0,0,0-.42-.16h-.1a.86.86,0,0,0-.23,0,7.43,7.43,0,0,0-2.23,1A8.28,8.28,0,0,0,30.29,34a.82.82,0,0,0,0,.1h0v0h0a.84.84,0,0,0,0,.24h0a.84.84,0,0,0,.16.28h0l0,0a13.67,13.67,0,0,0,20.13.11Zm-19.5-.68h0Zm4.36-2.18a.86.86,0,0,0-.86.86v3.06a12,12,0,0,1-2.61-2,6.35,6.35,0,0,1,2.75-4.56,5.52,5.52,0,0,1,1.38-.65A7.61,7.61,0,0,0,40.59,30h.15A7.77,7.77,0,0,0,45,28.62a5.78,5.78,0,0,1,1.34.64,6.38,6.38,0,0,1,2.75,4.64,11.87,11.87,0,0,1-2.5,1.92V32.78a.86.86,0,1,0-1.71,0v3.87a11.86,11.86,0,0,1-8.55,0V32.78A.86.86,0,0,0,35.5,31.92Z"/><polygon points="31.14 34.1 31.14 34.09 31.14 34.09 31.14 34.1"/><path d="M34,21.24a3.46,3.46,0,0,0,.82,1.38,6.9,6.9,0,0,0,2.1,3.29,5.59,5.59,0,0,0,3.76,1.53h.11a5.67,5.67,0,0,0,3.62-1.53,6.88,6.88,0,0,0,2.1-3.29,3.42,3.42,0,0,0,.81-1.37c.06-.19.55-1.81-.35-2.64a5.66,5.66,0,0,0-.07-2.85,5.46,5.46,0,0,0-1.73-2.65,6.82,6.82,0,0,0-4.33-1.33h-.33a6.82,6.82,0,0,0-4.34,1.33,5.46,5.46,0,0,0-1.73,2.65,5.77,5.77,0,0,0-.08,2.86C33.41,19.48,33.9,21.07,34,21.24Zm2.07-5a3.73,3.73,0,0,1,1.17-1.81,5.17,5.17,0,0,1,3.27-.94h.3a5.17,5.17,0,0,1,3.26.94,3.74,3.74,0,0,1,1.18,1.81l0,.11a2.56,2.56,0,0,0-.62-.34,3.25,3.25,0,0,0-2.3.14,5.68,5.68,0,0,1-1.52.33h-.37a5.67,5.67,0,0,1-1.52-.33,4.61,4.61,0,0,0-1.43-.3,2.46,2.46,0,0,0-.87.16,2.57,2.57,0,0,0-.62.34Zm-.53,3.63h0l.13,0,.15-.08.09-.07.09-.09L36,19.5a.83.83,0,0,0,.08-.16l0,0c.28-.93.66-1.53,1.08-1.68s.59,0,1.17.17a7.32,7.32,0,0,0,2,.41h.55a7.32,7.32,0,0,0,2-.41c.58-.19.88-.27,1.17-.17s.8.75,1.08,1.68a.85.85,0,0,0,.62.58h0a2.11,2.11,0,0,1-.1.87,1.74,1.74,0,0,1-.51.79.85.85,0,0,0-.26.44,5.18,5.18,0,0,1-1.62,2.65,4.07,4.07,0,0,1-2.56,1.12h-.13A4.05,4.05,0,0,1,38,24.62,5.18,5.18,0,0,1,36.36,22a.86.86,0,0,0-.26-.43,1.76,1.76,0,0,1-.51-.8A2.07,2.07,0,0,1,35.5,19.88Z"/></svg>