<svg id="Icons" xmlns="http://www.w3.org/2000/svg" viewBox="0 0 80 80"><title>ocmw-intranet</title><path d="M68.59,59.3a4.36,4.36,0,0,0-.47-.52l-1.29-1.21V43.41c0-.14,0-.26,0-.4s0-.27,0-.41V24.82a2,2,0,0,0-2-2h-52a2,2,0,0,0-2,2v18c0,.13,0,.26,0,.4s0,.27,0,.41V61.37a2,2,0,0,0,2,2H52.33q0,1.17,0,2.34A2.86,2.86,0,0,0,57.21,68l.81-.76.28.64c.29.66.59,1.33.85,2A3.52,3.52,0,0,0,61.23,72a1.18,1.18,0,0,0,.4.07h.78a1.17,1.17,0,0,0,.48-.1L65,71a2.87,2.87,0,0,0,1.55-4.11L65.21,64l1.15-.1a3,3,0,0,0,2.25-1.16A2.81,2.81,0,0,0,68.59,59.3Zm-15.17-11a3.22,3.22,0,0,0-1.11,1.88,1.2,1.2,0,0,0,0,.3V59l0,.23c0,.11,0,.22,0,.33v.56H14.08V43.52c0-.1,0-.2,0-.29v-.09c0-.1,0-.2,0-.3V26.06H63.57V42.69c0,.11,0,.21,0,.33s0,.22,0,.32V54.52L57.26,48.6A2.89,2.89,0,0,0,53.42,48.28Zm13.33,13c-.07.1-.19.21-.59.24l-1.93.17-.86.08a1.17,1.17,0,0,0-1,1.62l.07.16.13.3,1.82,4a1,1,0,0,1,.12.63,1,1,0,0,1-.51.39l-1.88.85h-.28a1.42,1.42,0,0,1-.56-.78c-.28-.71-.58-1.4-.89-2.1l-.92-2.13a1.17,1.17,0,0,0-1.84-.42l-.12.1-.27.24-.54.51-1.12,1.05c-.4.37-.43.23-.53.21s-.42-.09-.43-.72q0-1.74,0-3.48V59.56c0-.18,0-.36,0-.54v-8.4a1,1,0,0,1,.23-.48c.29-.22.51-.14.84.16L66.53,60.48a2.08,2.08,0,0,1,.23.25A.48.48,0,0,1,66.75,61.32Z"/><path d="M48.42,41.27c0-.15-.21-.15-.27,0a3.78,3.78,0,1,1-3.49-5.36,3.43,3.43,0,0,1,.6,0c.19,0,.33-.13.2-.27a11.69,11.69,0,1,0,3,5.59Z"/><circle cx="50.66" cy="36.63" r="3.79"/><path d="M52.28,16.74a1.63,1.63,0,0,1-1.15-.48,17.39,17.39,0,0,0-24.6,0A1.63,1.63,0,0,1,24.22,14a20.66,20.66,0,0,1,29.22,0,1.63,1.63,0,0,1-1.16,2.79Z"/><path d="M48,21a1.63,1.63,0,0,1-1.16-.48,11.34,11.34,0,0,0-16,0,1.63,1.63,0,0,1-2.31-2.31,14.61,14.61,0,0,1,20.66,0A1.63,1.63,0,0,1,48,21Z"/></svg>