<svg id="Icons" xmlns="http://www.w3.org/2000/svg" viewBox="0 0 80 80"><title>personal-news</title><path d="M52.17,28.61c.35,3.22,2.26,5,5.34,5s5-1.82,5.35-5h.06V26.5h-.06c-.36-3.22-2.27-5-5.35-5s-5,1.82-5.34,5h-.06v2.11Z"/><path d="M63.76,34.79v-.07H52.84c-6.41,0-9.39,2.94-9.39,9.25v9.68a1.64,1.64,0,0,0,1.64,1.63h1.78a1.64,1.64,0,0,0,1.64-1.63V44.22c0-1.87.52-3.17,1.55-3.89a26.85,26.85,0,0,0-.35,4.93V70a1.64,1.64,0,0,0,1.64,1.63h2.75A1.64,1.64,0,0,0,55.76,70V60.58c0-4.54,0-4.54,1.75-4.54s1.78,0,1.78,4.54V70a1.63,1.63,0,0,0,1.64,1.63h2.75A1.64,1.64,0,0,0,65.32,70V60.3c0-.38,0-.75,0-1.07V46.08c0-.25,0-.51,0-.77a25.84,25.84,0,0,0-.37-5c1.06.71,1.59,2,1.59,3.92v9.44a1.64,1.64,0,0,0,1.64,1.63H70a1.64,1.64,0,0,0,1.64-1.63V43.94C71.59,38.26,69,35.26,63.76,34.79Z"/><path d="M40,16.07a2,2,0,0,0,.13-1.37.27.27,0,0,0-.14-.14l-1.25-.47c-.28-.1-.72.39-1,1.14l-.6,1.63L13.05,14.42l.34-.92a.54.54,0,0,0,0-.43.46.46,0,0,0-.25-.23L12,12.42a.51.51,0,0,0-.64.33L8.57,20.27a.53.53,0,0,0,0,.43.45.45,0,0,0,.25.23l1.13.42A.5.5,0,0,0,10.6,21L11,20l4,2.73c-1.38,2-2.41,3.81-1.49,5.62a5.66,5.66,0,0,0,1.87,2c3.52,2.48,5.41.44,7.32-2.28l8.22,5.67-.63,1.7a2,2,0,0,0-.13,1.37.29.29,0,0,0,.15.14l1.25.46c.28.1.71-.37,1-1.14ZM16.35,28.89c-1.84-1.29-2-2.09.06-5.11l4.75,3.27C19,30.1,18.19,30.18,16.35,28.89Zm-4.73-10.6.36-1,21.64,9L31.5,32Z"/><rect x="42.62" y="26.01" width="1.97" height="5.43" rx="0.42" ry="0.42" transform="translate(-1.1 55.7) rotate(-64.47)"/><path d="M39.92,34.69a.42.42,0,0,0,.18-.56l-1.46-2.95a.42.42,0,0,0-.56-.18l-1,.52a.42.42,0,0,0-.18.56L38.35,35a.42.42,0,0,0,.56.18Z"/><path d="M41.17,22l.16,1.12a.42.42,0,0,0,.47.35L45.06,23a.42.42,0,0,0,.35-.47l-.16-1.13a.42.42,0,0,0-.47-.35l-3.25.53A.42.42,0,0,0,41.17,22Z"/></svg>