<svg id="Icons" xmlns="http://www.w3.org/2000/svg" viewBox="0 0 80 80"><title>report</title><path d="M41.78,17.24l-1.52,0h-.8c-16.62.27-23.74,8.67-23.74,20.88,0,4.21.76,8.24,2.66,11.18,1.22,1.9,5.21,4.89,4.71,8.93-.35,2.87-4.07,5.46-1.6,5.43s8.38-6,8.38-6A36.9,36.9,0,0,0,39.46,59h.8C56.88,58.69,64,50.29,64,38.08,64,26.24,57.32,18,41.78,17.24ZM40.22,56.11h-.71c-10.45-.17-17-3.64-19.69-10.33a21.14,21.14,0,0,1-1.3-7.7c0-11.77,7.06-17.85,21-18.08l.23,0H40l.23,0c13.92.23,21,6.31,21,18.08a21.11,21.11,0,0,1-1.31,7.72C57.23,52.47,50.65,55.94,40.22,56.11Z"/><path d="M28.51,33.19c-2.22,0-3.76,1.3-3.81,4.33h0v.15h0c0,3,1.58,4.32,3.81,4.32s3.75-1.3,3.81-4.32h0v-.15h0C32.26,34.48,30.73,33.19,28.51,33.19Z"/><path d="M40.48,33.19c-2.23,0-3.76,1.3-3.81,4.33h0v.15h0c0,3,1.58,4.32,3.81,4.32s3.76-1.3,3.81-4.32h0v-.15h0C44.24,34.48,42.7,33.19,40.48,33.19Z"/><path d="M52.45,33.19c-2.23,0-3.76,1.3-3.81,4.33h0v.15h0c0,3,1.58,4.32,3.81,4.32s3.75-1.3,3.81-4.32h0v-.15h0C56.2,34.48,54.67,33.19,52.45,33.19Z"/></svg>