<svg id="Icons" xmlns="http://www.w3.org/2000/svg" viewBox="0 0 80 80"><title>reside</title><path d="M31.56,25.19h.18c1.58,0,1.95-.36,1.95-2.62s-.34-2.45-2-2.45h-.12c-1.62,0-2,.31-2,2.46S30,25.19,31.56,25.19Z"/><path d="M53.05,41.35h.18c1.58,0,1.95-.35,1.95-2.62s-.33-2.45-2-2.45h-.12c-1.62,0-2,.3-2,2.46S51.47,41.35,53.05,41.35Z"/><path d="M53.18,44.37h-.12c-1.62,0-2,.3-2,2.46s.37,2.61,1.95,2.61h.18c1.58,0,1.95-.36,1.95-2.62S54.85,44.37,53.18,44.37Z"/><path d="M31.7,36.28h-.12c-1.62,0-2,.31-2,2.46s.36,2.61,1.94,2.61h.18c1.58,0,1.95-.35,1.95-2.62S33.36,36.28,31.7,36.28Z"/><path d="M31.7,44.37h-.12c-1.62,0-2,.3-2,2.46s.36,2.61,1.94,2.61h.18c1.58,0,1.95-.36,1.95-2.62S33.36,44.37,31.7,44.37Z"/><path d="M25.31,28.2h-.12c-1.62,0-2,.3-2,2.46s.37,2.6,1.95,2.6h.18c1.58,0,1.95-.36,1.95-2.62S27,28.2,25.31,28.2Z"/><path d="M25.31,36.28h-.12c-1.62,0-2,.31-2,2.46s.37,2.61,1.95,2.61h.18c1.58,0,1.95-.35,1.95-2.62S27,36.28,25.31,36.28Z"/><path d="M25.31,44.37h-.12c-1.62,0-2,.3-2,2.46s.37,2.61,1.95,2.61h.18c1.58,0,1.95-.36,1.95-2.62S27,44.37,25.31,44.37Z"/><path d="M67,64.58H63.17V33a2.38,2.38,0,0,0-.9-2L54.6,25A2.39,2.39,0,0,0,53,24.44a2.35,2.35,0,0,0-1.6.54l-7.69,6a2.38,2.38,0,0,0-.91,2V64.58H39.58V14a2.09,2.09,0,0,0-2.09-2.09h-19A2.09,2.09,0,0,0,16.38,14V64.58H13a.56.56,0,0,0-.56.57v3H67.54v-3A.57.57,0,0,0,67,64.58ZM45.8,33.19,53,27.6l7.16,5.6V64.58H45.8ZM19.43,14.93h17.1V64.58H19.43Z"/></svg>