<svg id="Icons" xmlns="http://www.w3.org/2000/svg" viewBox="0 0 80 80"><title>sanitation</title><path d="M63.72,21.21H48.24C48.11,15.92,47,11.77,40,11.77h0c-7,0-8.1,4.17-8.22,9.44H16.28a1.61,1.61,0,1,0,0,3.22h2.34V44.22c0,15.93,2.64,24,17.1,24h8.57c14.45,0,17.1-8.09,17.1-24V24.43h2.34a1.61,1.61,0,1,0,0-3.22ZM40,14.73h0c4.06,0,5.13,1.15,5.28,6.48H34.72C34.85,15.88,35.92,14.74,40,14.73ZM58.42,44.22c0,14.84-2,21-14.13,21H35.72c-10,0-14.13-2.92-14.13-21V24.43H58.42V44.22Z"/><path d="M40.28,56.65a1.53,1.53,0,0,0,1.53-1.55V32a1.53,1.53,0,1,0-3.05,0V55.1A1.53,1.53,0,0,0,40.28,56.65Z"/><path d="M31.7,56.65a1.53,1.53,0,0,0,1.53-1.55V32a1.53,1.53,0,1,0-3.06,0V55.1A1.53,1.53,0,0,0,31.7,56.65Z"/><path d="M48.86,56.65a1.53,1.53,0,0,0,1.53-1.55V32a1.53,1.53,0,1,0-3.06,0V55.1A1.53,1.53,0,0,0,48.86,56.65Z"/></svg>