<svg id="Icons" xmlns="http://www.w3.org/2000/svg" viewBox="0 0 80 80"><title>social-affairs</title><path d="M55.09,22.62l-.28-.15c-3.06-1.66-5.51-2.5-7.62-2.5-2.75,0-4.94,1.43-7.19,4.37C37.75,21.4,35.56,20,32.81,20c-2.12,0-4.56.84-7.62,2.5l-.28.15c-9.17,5-9.43,9.45-3.41,19.88a46,46,0,0,0,17.6,17.24,1.53,1.53,0,0,0,1.79,0A40.89,40.89,0,0,0,49,54.05,9.61,9.61,0,0,0,60.11,39.54C64.38,31.17,63.35,27.09,55.09,22.62ZM40,57.18a43.75,43.75,0,0,1-16.17-16c-3.1-5.38-4.16-8.6-3.55-10.78.5-1.77,2.38-3.49,5.91-5.4l.28-.15c2.71-1.47,4.78-2.18,6.34-2.18,1.31,0,2.83.4,5.06,3.32L40,28.76,42.13,26c2.23-2.92,3.75-3.32,5.06-3.32,1.56,0,3.64.71,6.35,2.18l.28.15c3.53,1.91,5.41,3.63,5.91,5.4s0,3.83-1.57,7.07A9.61,9.61,0,1,0,46.44,52.69,40,40,0,0,1,40,57.18ZM58.69,45.72a.64.64,0,0,1-.65.66H53.48v4.56a.64.64,0,0,1-.66.65H51.31a.64.64,0,0,1-.66-.65V46.38H46.09a.65.65,0,0,1-.65-.66V44.2a.65.65,0,0,1,.65-.66h4.56V39a.65.65,0,0,1,.66-.65h1.52a.65.65,0,0,1,.66.65v4.56H58a.64.64,0,0,1,.65.66Z"/></svg>