<svg id="Icons" xmlns="http://www.w3.org/2000/svg" viewBox="0 0 80 80"><title>sports</title><path d="M68,13H57.78V10.59A2.82,2.82,0,0,0,55,7.77H25a2.82,2.82,0,0,0-2.82,2.82V13H12a2.7,2.7,0,0,0-2.69,2.7V28.8A11.76,11.76,0,0,0,21.07,40.55h1.2c.4,8.07,4.15,12.52,11.87,13.89v4.3l-7.92,4.69a2.71,2.71,0,0,0-1.32,2.32v6.48H55.1V65.75a2.71,2.71,0,0,0-1.32-2.32l-7.92-4.69v-4.3c7.72-1.37,11.47-5.82,11.87-13.89h1.2A11.76,11.76,0,0,0,70.68,28.8V15.74A2.7,2.7,0,0,0,68,13ZM12.7,28.8V16.43h9.51V37.17H21.07A8.37,8.37,0,0,1,12.7,28.8Zm39,37.34v2.71H28.28V66.14l6.29-3.73H45.42ZM42.48,59h-5v-4.2c.8,0,1.62.08,2.48.08h0c.86,0,1.68,0,2.48-.08Zm11.92-20C54.4,46.75,52,51.52,40,51.53S25.6,46.75,25.6,39.07V11.15H54.4ZM67.3,28.8a8.38,8.38,0,0,1-8.37,8.37H57.78V16.43H67.3Z"/><path d="M37.11,47V43.61A3.68,3.68,0,0,1,34,42.14a6,6,0,0,1-.91-3.4V14.68H29.69V38.74a9.36,9.36,0,0,0,1.53,5.35A7,7,0,0,0,37.11,47Z"/></svg>