<svg id="Icons" xmlns="http://www.w3.org/2000/svg" viewBox="0 0 80 80"><title>staff</title><path d="M16,21.28c.29,2.6,1.83,4.07,4.32,4.07s4-1.47,4.32-4.07h.05V19.57h0c-.29-2.6-1.83-4.07-4.32-4.07S16.29,17,16,19.57h-.05v1.71Z"/><path d="M55.34,21.28c.29,2.6,1.83,4.07,4.32,4.07s4-1.47,4.32-4.07H64V19.57h0c-.29-2.6-1.83-4.07-4.32-4.07s-4,1.47-4.32,4.07h-.05v1.71Z"/><path d="M26.62,35.39v-.62a21.09,21.09,0,0,0-.3-4.05,3.55,3.55,0,0,1,1.28,3.17v5.44a6.91,6.91,0,0,1,4.09-5.7c0-4.57-2.08-7-6.33-7.36v-.05H16.54C11.37,26.22,9,28.6,9,33.7v7.82a1.32,1.32,0,0,0,1.33,1.32h1.44a1.32,1.32,0,0,0,1.33-1.32V33.89a3.58,3.58,0,0,1,1.25-3.14,21.46,21.46,0,0,0-.28,4v20a1.32,1.32,0,0,0,1.33,1.32h2.22a1.33,1.33,0,0,0,1.33-1.32V47.12c0-3.67,0-3.67,1.42-3.67s1.43,0,1.43,3.67v7.63a1.32,1.32,0,0,0,1.33,1.32H25.3a1.32,1.32,0,0,0,1.33-1.32V46.89c0-.31,0-.61,0-.86V35.39Z"/><path d="M35.67,29.72c.29,2.6,1.83,4.07,4.32,4.07s4-1.47,4.32-4.07h.05V28h-.05c-.29-2.6-1.83-4.07-4.32-4.07S36,25.41,35.67,28h-.05v1.71Z"/><path d="M45,34.71v-.05H36.22c-5.18,0-7.59,2.38-7.59,7.48V50A1.32,1.32,0,0,0,30,51.28h1.44A1.33,1.33,0,0,0,32.72,50V42.33A3.58,3.58,0,0,1,34,39.19a21.82,21.82,0,0,0-.28,4v20A1.32,1.32,0,0,0,35,64.5h2.23a1.32,1.32,0,0,0,1.33-1.32V55.56c0-3.67,0-3.67,1.42-3.67s1.43,0,1.43,3.67v7.63a1.32,1.32,0,0,0,1.33,1.32H45a1.32,1.32,0,0,0,1.33-1.32V55.33c0-.31,0-.61,0-.86V43.84c0-.2,0-.41,0-.62a20.92,20.92,0,0,0-.3-4.05,3.55,3.55,0,0,1,1.29,3.17V50a1.32,1.32,0,0,0,1.33,1.32H50A1.33,1.33,0,0,0,51.37,50V42.11C51.37,37.52,49.3,35.09,45,34.71Z"/><path d="M64.71,26.27v-.05H55.88c-5.16,0-7.57,2.37-7.59,7.44a7,7,0,0,1,4.09,5.72V33.9a3.58,3.58,0,0,1,1.26-3.15,21.41,21.41,0,0,0-.28,4v20a1.33,1.33,0,0,0,1.33,1.32h2.22a1.32,1.32,0,0,0,1.33-1.32V47.12c0-3.66,0-3.66,1.42-3.67s1.43,0,1.43,3.67v7.63a1.32,1.32,0,0,0,1.32,1.32h2.22A1.33,1.33,0,0,0,66,54.74V46.89c0-.31,0-.61,0-.86V34.77a20.93,20.93,0,0,0-.3-4.05A3.55,3.55,0,0,1,67,33.89v7.63a1.32,1.32,0,0,0,1.33,1.32h1.44A1.32,1.32,0,0,0,71,41.52V33.67C71,29.08,69,26.65,64.71,26.27Z"/></svg>