<svg id="Icons" xmlns="http://www.w3.org/2000/svg" viewBox="0 0 80 80"><title>traffic</title><polygon points="19.2 20.41 17.43 19.13 15.66 20.41 15.66 23.11 19.2 23.11 19.2 20.41"/><path d="M63.65,54.88c0-.69,0-1.38-1.11-1.36l-1.65,0V56.2h1.65C63.63,56.21,63.65,55.54,63.65,54.88Z"/><path d="M70,49.22H64.08v-3.3c0-5.19-2.6-15-12.45-15-9,0-11,5.55-12.62,10-.19.53-.38,1-.58,1.56s-.3.79-.46,1.2C36.18,48.41,34.15,53.8,27,53.8c-8,0-8.06-9.69-8.06-10.11V31.39l6-4.47a.67.67,0,0,0,.23-.58V15.72s0-.45-.38-.45H10.11a.43.43,0,0,0-.45.45V26.35a.66.66,0,0,0,.23.58l6,4.47V43.7c0,4.54,2.32,13.13,11.09,13.13,9.23,0,12-7.28,13.79-12.1l.45-1.17c.21-.53.41-1.08.61-1.63,1.56-4.3,2.91-8,9.77-8,9.32,0,9.43,11.5,9.43,12v3.3H55.24a.43.43,0,0,0-.45.45V64.27a.47.47,0,0,0,.41.46H69.91a.44.44,0,0,0,.44-.46V49.66S70.38,49.22,70,49.22ZM15.66,24.76v2.59a.37.37,0,0,1-.38.38h-1a.37.37,0,0,1-.38-.38V19.71a.3.3,0,0,1,.11-.26l3.22-2.38a.32.32,0,0,1,.22-.07.33.33,0,0,1,.22.07l3.22,2.38a.31.31,0,0,1,.11.26v7.64a.37.37,0,0,1-.38.38h-1a.37.37,0,0,1-.38-.38V24.76ZM63.15,62.33H59.49a.37.37,0,0,1-.38-.38V52.17a.38.38,0,0,1,.38-.38H62.6c2.26,0,2.89,1.53,2.89,3.06A3.68,3.68,0,0,1,65,56.76a3.07,3.07,0,0,1,1,2.52C66,60.8,65.41,62.33,63.15,62.33Z"/><path d="M63.09,57.92c-1.31,0-1.9,0-2.2,0v2.65l2.2,0c1.07,0,1.09-.67,1.09-1.36S64.18,57.92,63.09,57.92Z"/></svg>