<svg id="Icons" xmlns="http://www.w3.org/2000/svg" viewBox="0 0 80 80"><defs><style>.cls-1{fill-rule:evenodd;}</style></defs><title>uit-vlieg</title><path class="cls-1" d="M43.26,18.06c.4.11.8.19,1.19.32A5.66,5.66,0,0,1,48,22.21a13.08,13.08,0,0,1,.57,4.63,34.55,34.55,0,0,1-1.93,9.76l-.09.27a1.7,1.7,0,0,0,1.23.07c0-.24-.07-.48-.1-.72a7.14,7.14,0,0,1,1.22-5.1,6.05,6.05,0,0,1,5.32-2.57,6.32,6.32,0,0,1,6,4.43l.11.31a4.4,4.4,0,0,1,3.74-.05A5.31,5.31,0,0,1,67,38.62a4.18,4.18,0,0,1-1.69,2.81c.72.62,1.44,1.2,2.11,1.83a9.18,9.18,0,0,1,2.91,4.88,5.66,5.66,0,0,1-.2,3.21,13.23,13.23,0,0,1-6.23,7,26.54,26.54,0,0,1-7,2.53,60.65,60.65,0,0,1-6.48,1.05,4.45,4.45,0,0,1-.5,0c-.7,0-1.4,0-2.09,0a33.1,33.1,0,0,1-8-.78,28.88,28.88,0,0,1-7.76-2.72c-.54-.29-1.07-.61-1.62-.93a1.87,1.87,0,0,0-.72,1.86.43.43,0,0,1,0,.25,1.42,1.42,0,0,1-1.74.67,1.25,1.25,0,0,1-.79-1.54,1,1,0,0,1,.69-.71c.33-.13.67-.22,1-.35a1.1,1.1,0,0,0,.76-.77L28,55.47c-.42.42-.8.8-1.19,1.16a1.66,1.66,0,0,0-.63,1.66.85.85,0,0,1-.55,1,1.3,1.3,0,0,1-1.47-.08,1.41,1.41,0,0,1-.39-1.48A1.09,1.09,0,0,1,24.85,57a.84.84,0,0,0,.8-.39c.48-.63,1-1.22,1.49-1.83l.11-.17c-.19-.23-.38-.46-.56-.7a6.18,6.18,0,0,1-1.1-2.33.56.56,0,0,0-.35-.42c-1-.47-2.05-.94-3.07-1.42-.39-.19-.78-.41-1.23-.65l.48-.2,4.15-1.9a.45.45,0,0,0,.2-.2,12,12,0,0,1,5.16-5.54c1.16-.69,2.39-1.27,3.59-1.9l.39-.19-.58-.28a41.19,41.19,0,0,1-5.63-3.07,11.53,11.53,0,0,1-3-2.83,6.35,6.35,0,0,1-1.22-4.1A5.33,5.33,0,0,1,25.54,26a16.56,16.56,0,0,1,4.93-4.55,5.54,5.54,0,0,1,3-.84,3.23,3.23,0,0,0,1.07-.26,1.93,1.93,0,0,0,.58-.34,8.38,8.38,0,0,1,4.05-1.62c.45-.08.9-.19,1.34-.29Zm.12,22,.06,0a1.91,1.91,0,0,0,0-.25c-.45-2.17-.87-4.35-1.35-6.51a28,28,0,0,0-2.16-6.52,12.24,12.24,0,0,0-2.7-3.76,4.85,4.85,0,0,0-6-.79A15.17,15.17,0,0,0,27,25.61a5.3,5.3,0,0,0-.22,7.11,11.51,11.51,0,0,0,3.12,2.67,46.43,46.43,0,0,0,11.08,4.92l1.71.51a1.06,1.06,0,0,0-.24-.38c-1-1.19-2.11-2.37-3.14-3.56-.64-.74-1.24-1.52-1.87-2.27a2.41,2.41,0,0,0-1.49-.84c-1.32-.21-2.64-.4-4-.59-.89-.13-1.79-.21-2.68-.36a2.93,2.93,0,0,1-.92-.36.48.48,0,0,1-.17-.42c0-.11.19-.23.33-.27a.91.91,0,0,1,.44,0l4,.64,2.72.45c-.13-.19-.21-.33-.32-.45L30.59,27a7.16,7.16,0,0,1-.59-.73.71.71,0,0,1-.07-.7.29.29,0,0,1,.39-.19,1.8,1.8,0,0,1,.83.68l3.55,4c.06.06.13.11.23.2,0-.44,0-.82,0-1.2,0-1.51,0-3,0-4.54a2.89,2.89,0,0,1,.19-.94.51.51,0,0,1,.4-.25c.12,0,.25.18.33.31a.75.75,0,0,1,.07.37c0,.82,0,1.63,0,2.45,0,1.2-.11,2.4-.13,3.59a3.24,3.24,0,0,0,.91,2.47c1,1,2,2.12,2.92,3.21,1.19,1.35,2.36,2.71,3.54,4.07A2.15,2.15,0,0,0,43.38,40Zm15.11-1.43.07.23.05.17a3.41,3.41,0,0,0,2.25,2.24,4.09,4.09,0,0,0,2.18.12,3.58,3.58,0,0,0,3-2.55,3.67,3.67,0,0,0-1.09-3.9A4.15,4.15,0,0,0,60,34.54l-.32.19c0-.1,0-.16,0-.21a5,5,0,0,0-2-3.73,6,6,0,0,0-3.9-1.16A5.28,5.28,0,0,0,49,33a5.94,5.94,0,0,0,1.51,6.23,5.17,5.17,0,0,0,7.15.12C57.88,39.07,58.17,38.87,58.49,38.62Zm-14,1.31a1.62,1.62,0,0,0,.08-.15c.55-1.7,1.11-3.39,1.64-5.1a28.51,28.51,0,0,0,1.45-8.33,11.49,11.49,0,0,0-.42-3.58,4.88,4.88,0,0,0-4.16-3.68,10.43,10.43,0,0,0-5.66.73c-.66.28-1.29.65-1.93,1l0,.09A5.45,5.45,0,0,1,38,22.46c.65.74,1.24,1.53,1.89,2.34a5,5,0,0,0-.07-.63c-.14-.6-.33-1.19-.45-1.8a1.67,1.67,0,0,1,.06-.83.31.31,0,0,1,.61-.05,4.61,4.61,0,0,1,.47,1.16c.25,1.18.43,2.37.66,3.56.11.56.26,1.12.4,1.75l.18-.3,1.64-2.93,1.14-2.06a1,1,0,0,1,1-.63c0,.19,0,.37,0,.55a3.94,3.94,0,0,1-.64,1.69Q43.44,26.75,42,29.23a.49.49,0,0,0,0,.37,32.21,32.21,0,0,1,1.44,5C43.81,36.36,44.16,38.12,44.53,39.93Zm4.76,7.26c-.52.49-1,.88-1.37,1.29s-.83.89-1.23,1.35a.33.33,0,0,0,0,.3A14.73,14.73,0,0,0,48.9,53c.16-.17.32-.34.47-.51a7.9,7.9,0,0,1,1.7-1.58,3.82,3.82,0,0,0,.63-.53c.29-.3.28-.46,0-.74l-.23-.19a6.82,6.82,0,0,1-1.59-1.56C49.68,47.65,49.48,47.43,49.28,47.19Zm3.27,8.5,2.51-2.45-2.74-2.76-3,3A14.87,14.87,0,0,0,52.56,55.68ZM46,44c-1,1.24-.53,3.91.17,5.09a8.29,8.29,0,0,0,2.57-2.4Zm11.68,11.8c-.84-.59-1.3-1.56-2.06-2l-2.35,2.08a1.41,1.41,0,0,0,.17.12,6.47,6.47,0,0,0,2.92.4A1.75,1.75,0,0,0,57.63,55.81Z"/><path class="cls-1" d="M9.5,45.74c.08-.48.15-1,.24-1.44.13-.72.24-1.45.42-2.16A2.12,2.12,0,0,1,11,40.88a.32.32,0,0,1,.45,0,5.76,5.76,0,0,1,.53.66,7,7,0,0,1,.35.64l.07,0c.46-.77.93-.79,1.39,0,.18.3.29.64.44,1,0,.08.13.19.2.19a.79.79,0,0,1,.73.51c.14.29.24.6.36.9l.2.53c.08-.25.13-.44.21-.62a.68.68,0,0,1,.53-.49.62.62,0,0,1,.62.36,6.09,6.09,0,0,1,.92,2.65c.05.46.08.91.11,1.22l.42-2a.67.67,0,0,1,.09-.25c.1-.13.2-.32.33-.36s.27.15.37.27A3.48,3.48,0,0,1,20,47.84a14.29,14.29,0,0,1-.17,3.91,2.25,2.25,0,0,1-.24.69.44.44,0,0,1-.81,0,2.52,2.52,0,0,1-.35-.87c-.1-.53-.14-1.07-.19-1.61,0-.32,0-.64-.08-1-.05.61-.06,1.23-.17,1.83a23.29,23.29,0,0,1-.54,2.47,3.16,3.16,0,0,1-.58.94.29.29,0,0,1-.53,0,6.9,6.9,0,0,1-.46-.91c-.1-.25-.15-.52-.25-.79a3,3,0,0,1-.81,1.26.79.79,0,0,0-.12.35c-.16.64-.28,1.28-.47,1.91a1.71,1.71,0,0,1-.41.67.71.71,0,0,1-1.19-.19c-.09-.17-.15-.36-.23-.54s-.15-.29-.23-.46l-.07.09c-.12.29-.28.54-.65.56a.88.88,0,0,1-.85-.48,5.3,5.3,0,0,1-.62-2c-.15-1-.28-2-.42-3a.8.8,0,0,0-.06-.16Zm1.88,10.18h.13a3.32,3.32,0,0,0,.34-.79,4.41,4.41,0,0,0,0-1.23,32.08,32.08,0,0,1-.47-3.59,26.85,26.85,0,0,1,.16-4.53c.13-.84.32-1.68.44-2.52a2.09,2.09,0,0,0-.62-2c-.14-.12-.26-.13-.36,0a7.46,7.46,0,0,0-.52,1,13.73,13.73,0,0,0-.7,4.29,34.17,34.17,0,0,0,.23,5.8A7.72,7.72,0,0,0,10.75,55,10,10,0,0,0,11.38,55.92Zm2,.76a5,5,0,0,0,.94-1.8,2.77,2.77,0,0,0-.19-2.08,8,8,0,0,1-.51-1.62,7.41,7.41,0,0,1-.15-1.2,18,18,0,0,1,.08-4.09c.12-.79.29-1.56.39-2.35A1.37,1.37,0,0,0,13.29,42a.42.42,0,0,0-.36,0,1,1,0,0,0-.37,1c.07.43.2.86.25,1.3.13,1.26.26,2.52.31,3.79a19,19,0,0,1-.24,4.52c-.15.73-.29,1.47-.37,2.2A1.83,1.83,0,0,0,13.39,56.68ZM12.23,43.62a26.16,26.16,0,0,0,.08,10.62A25.92,25.92,0,0,0,12.23,43.62Zm4.56,10.44a.82.82,0,0,0,.15-.2q.26-.87.5-1.74s0-.13-.08-.16a2.5,2.5,0,0,1-.88-1.49,9.91,9.91,0,0,1,.36-5.34.57.57,0,0,0-.05-.58c-.17-.24-.29-.27-.41,0a3.4,3.4,0,0,0-.36,1c-.06.64,0,1.3,0,1.94,0,1.16-.09,2.32-.09,3.48a12.08,12.08,0,0,0,.17,1.93A1.73,1.73,0,0,0,16.79,54.06ZM14.52,53a23,23,0,0,0-.36-8.48A15.72,15.72,0,0,0,14.52,53Zm4.54-6.91c-.72,1.64-.77,5.13.19,6.35A9,9,0,0,0,19.07,46.06Zm-1.75,5.49A12.39,12.39,0,0,0,17,45.37C16.56,47.5,16.25,49.55,17.31,51.55ZM15,53.15c0-.09.08-.17.11-.26a7.12,7.12,0,0,0,.36-2.49c0-1.35,0-2.71,0-4.06a5.12,5.12,0,0,0-.52-2.45,1.57,1.57,0,0,0-.3-.32l-.08.06A49.43,49.43,0,0,1,15,53.15Z"/><path class="cls-1" d="M63.83,36.16A1.69,1.69,0,0,1,65.62,38a1.88,1.88,0,0,1-1.82,2,2,2,0,0,1-1.94-2.06A1.76,1.76,0,0,1,63.83,36.16Z"/><path class="cls-1" d="M58.21,35.25a2,2,0,0,1-1.9,2,1.89,1.89,0,0,1-1.84-2,1.86,1.86,0,0,1,2-1.79A1.67,1.67,0,0,1,58.21,35.25Z"/></svg>