<svg id="Icons" xmlns="http://www.w3.org/2000/svg" viewBox="0 0 80 80"><title>uit</title><path d="M12.9,60.66l41.33-6.83a1.48,1.48,0,0,0,1.65-1.29V41.07c0-.09,0-.17,0-.25s0-.17,0-.26V29.2a1.49,1.49,0,0,0-1.65-1.3L11.77,19.34c-1.35-.27-1.33-1.1,0-1.09H67.49a2.14,2.14,0,0,1,2.14,2.18V39.48c0,.15,0,.29,0,.44s0,.28,0,.42V59.58a2.12,2.12,0,0,1-2.14,2.17H12.78C11.56,61.75,11.6,60.88,12.9,60.66Z"/><path d="M23.68,26.84l-1.93-.31c-.4-.07-.73.33-.73.9V42c0,8.46-1.15,8.58-3.63,8.81s-3.63.27-3.63-8.82V26.34c0-.61-.33-1.14-.73-1.21l-1.93-.31c-.4-.06-.73.38-.73,1v16.6c0,10.48,1.13,13.94,7,13.15s7-4.08,7-13.25V27.94A1.06,1.06,0,0,0,23.68,26.84Z"/><path d="M29.72,30.73l1.83.23c.41.05.71-.32.71-.82V27.88a1,1,0,0,0-.71-1l-1.83-.32c-.42-.07-.72.3-.72.82v2.36A1,1,0,0,0,29.72,30.73Z"/><path d="M33.25,49.42l-1,.09V35.43a.9.9,0,0,0-.73-1l-3.62-.32c-.41,0-.71.37-.71.91v2.23c0,.54.3,1,.71,1l1.09,0V49.79l-1.09.09a1,1,0,0,0-.71,1v2.24c0,.54.3.93.71.88l5.34-.7a1,1,0,0,0,.72-1V50.26C34,49.76,33.67,49.39,33.25,49.42Z"/><path d="M49.25,30.95,36,28.82c-.4-.07-.71.28-.71.77v2a.92.92,0,0,0,.71,1l4.93.57V51.5a.65.65,0,0,0,.73.71L43.6,52a.87.87,0,0,0,.73-.87V33.55l4.92.57a.62.62,0,0,0,.72-.64V31.79A.87.87,0,0,0,49.25,30.95Z"/></svg>