<svg id="Icons" xmlns="http://www.w3.org/2000/svg" viewBox="0 0 80 80"><title>webmail</title><path d="M43.74,40.94a.51.51,0,0,1-.52-.5v-.58A3.66,3.66,0,0,1,40.65,41c-2.11,0-2.93-1.45-2.93-4.56,0-3.62,1.11-4.46,2.93-4.46H43.2a1.49,1.49,0,0,0-1.71-1.61H38.41c-1.67,0-1.74,1.14-1.74,2.24v7.13c0,1.1.06,2.24,1.74,2.24h7.14a.59.59,0,0,1,.6.61V44a.59.59,0,0,1-.6.61H38.31c-3.58,0-4.46-2.42-4.46-4.83V32.63c0-2.43,1-4.85,4.56-4.85h3.18c3.59,0,4.56,2.42,4.56,4.85v7.81a.51.51,0,0,1-.52.5Zm-.52-4V34.61h-2c-.73,0-.92.57-.92,1.81,0,1.75.37,2,.85,2C42.07,38.39,42.58,37.68,43.22,37Z"/><path d="M68.43,37.33a2.55,2.55,0,0,0-1-2.2c-.26-.25-2.59-2-4.8-3.79-.41-.32-.89-.67-1.38-1V25.69A3.32,3.32,0,0,0,58,22.38H51.33c-5.72-4.54-10.11-8.17-10.11-8.17a1.66,1.66,0,0,0-2.26,0s-4.79,3.74-10.55,8.17H22a3.32,3.32,0,0,0-3.32,3.32v4.13c-2.83,2.17-5.24,4-5.39,4.14-.55.52-1.74,1.67-1.74,2.6v8.75c0,.14,0,.26,0,.4s0,.27,0,.41v18a2,2,0,0,0,2,2.06H66.38a2,2,0,0,0,2-2.06V46c0-.14,0-.26,0-.4s0-.27,0-.42S68.45,38.1,68.43,37.33Zm-4.15-.94-3,1.6V34.2ZM40.09,17.69l6,4.69h-12Zm17.9,8V39.79L40.12,49.42,22,39.67v-14ZM18.7,34.36v3.52l-2.77-1.49ZM65.09,45.14v.14c0,.09,0,.18,0,.28s0,.18,0,.27v17.1H14.88v-23L39,52.9a1.66,1.66,0,0,0,2.26,0L65.09,40.16Z"/></svg>