<svg id="Icons" xmlns="http://www.w3.org/2000/svg" viewBox="0 0 80 80"><title>welfare</title><path d="M45.2,16.3h-21A1.69,1.69,0,0,0,22.52,18V62a1.68,1.68,0,0,0,1.72,1.69H55.77A1.69,1.69,0,0,0,57.48,62V28.59Zm.54,4.25,7.53,7.53H45.74Zm9.12,40.52H25.14V18.92h18V29a1.67,1.67,0,0,0,1.72,1.69h10Z"/><path d="M36.05,41c.26,2.38,1.67,3.72,3.95,3.72s3.68-1.34,3.95-3.72h0V39.44h0c-.26-2.38-1.67-3.72-3.95-3.72s-3.69,1.35-3.95,3.72h0V41Z"/><path d="M43,45.72a6.38,6.38,0,0,1-6.07,0c-2.86.91-3.42,3.52-3.42,8.4,0,.69,0,1.34,0,1.94H46.43c0-.6,0-1.22,0-1.9C46.47,49.32,45.92,46.66,43,45.72Z"/></svg>