<svg id="Icons" xmlns="http://www.w3.org/2000/svg" viewBox="0 0 80 80"><title>wiki</title><path d="M47.08,33.13H45.3a.65.65,0,0,0-.67.66V46l-2,1.95L40.6,46V33.79a.65.65,0,0,0-.67-.66H38.16a.65.65,0,0,0-.67.66V46l-2,1.95-2-1.95V33.79a.65.65,0,0,0-.67-.66H31a.65.65,0,0,0-.67.66V47.55a.54.54,0,0,0,.18.46l4.56,3.55a.57.57,0,0,0,.39.13.52.52,0,0,0,.39-.13L39,49.09l3.18,2.48a.57.57,0,0,0,.39.13.52.52,0,0,0,.39-.13L47.56,48a.54.54,0,0,0,.18-.46V33.79A.65.65,0,0,0,47.08,33.13Z"/><path d="M63.28,55.71a3.52,3.52,0,0,0-.38-.42l-1-1V42.78c0-.11,0-.21,0-.32s0-.22,0-.34V27.64A1.63,1.63,0,0,0,60.22,26H17.87a1.62,1.62,0,0,0-1.63,1.65V42.27c0,.11,0,.21,0,.32s0,.22,0,.33V57.4a1.63,1.63,0,0,0,1.63,1.65H50c0,.64,0,1.27,0,1.91a2.33,2.33,0,0,0,4,1.79l.66-.62.23.52c.24.54.48,1.08.69,1.63a2.87,2.87,0,0,0,1.69,1.79,1,1,0,0,0,.33.06h.63a1,1,0,0,0,.39-.08l1.71-.77a2.34,2.34,0,0,0,1.26-3.35l-1.09-2.4.94-.08a2.45,2.45,0,0,0,1.83-.94A2.29,2.29,0,0,0,63.28,55.71Zm-12.35-9A2.62,2.62,0,0,0,50,48.27a1,1,0,0,0,0,.25v7l0,.18c0,.09,0,.18,0,.27v.46H18.9V42.86c0-.08,0-.16,0-.24v-.07c0-.08,0-.17,0-.25V28.65H59.19V42.19c0,.09,0,.17,0,.27s0,.18,0,.26v9.1L54.05,47A2.35,2.35,0,0,0,50.93,46.74ZM61.78,57.35c-.06.08-.15.17-.48.2l-1.57.14-.7.06a1,1,0,0,0-.79,1.32l.06.13.11.25,1.49,3.25a.5.5,0,0,1-.31.83L58,64.23h-.23a1.15,1.15,0,0,1-.45-.64c-.22-.58-.47-1.14-.72-1.71l-.75-1.73a1,1,0,0,0-1.5-.34l-.09.08-.22.2-.44.42-.91.86c-.33.31-.35.19-.43.17s-.34-.08-.35-.58q0-1.42,0-2.84V55.92c0-.15,0-.29,0-.44V48.65a.77.77,0,0,1,.18-.39c.24-.18.42-.11.68.13l8.84,8.28a1.65,1.65,0,0,1,.19.2A.39.39,0,0,1,61.78,57.35Z"/><path d="M29.07,20.68a14.16,14.16,0,0,1,20,0A1.33,1.33,0,0,0,51,18.8a16.82,16.82,0,0,0-23.79,0,1.33,1.33,0,0,0,1.88,1.88Z"/><path d="M30.67,22.28a1.33,1.33,0,1,0,1.88,1.88,9.23,9.23,0,0,1,13.06,0,1.33,1.33,0,1,0,1.88-1.88,11.9,11.9,0,0,0-16.82,0Z"/></svg>