<svg id="Icons" xmlns="http://www.w3.org/2000/svg" viewBox="0 0 80 80"><title>yammer</title><path d="M41.47,8.88c0-.05,0-.1.06-.15a3.9,3.9,0,0,0-7.38-2.53l-.09.26a.2.2,0,0,1,0,.06h0c-1.29,3.68-12.53,33-12.53,33h-.2L8.05,6H8L7.86,5.5A4.13,4.13,0,0,0,.21,8.55c1.63,4.12,16.94,41.31,16.94,41.31l-1,2.21c-1.69,4.57-3.57,7.65-8.64,7.65-.49,0-2.19-.1-2.3-.11A3.54,3.54,0,0,0,4,66.55,23.35,23.35,0,0,0,8,66.87c9.33,0,12.41-5.37,15.49-13.2,0,0,16.91-42.26,17.68-44,.12-.28.23-.53.32-.76Z"/><path d="M65.9,63.06h0a5,5,0,0,1-1.36-.19l-.63-.32c-1.56-.87-19.37-12.89-19.55-16.08a1.15,1.15,0,0,1,.49-1,2.52,2.52,0,0,1,1.45-.37c4.18,0,15.77,5.52,22.54,9.23a4.87,4.87,0,0,1-2.93,8.75"/><path d="M46.3,26.22h0a2.48,2.48,0,0,1-1.45-.37,1.14,1.14,0,0,1-.49-1c.17-3.2,18-15.21,19.55-16.08l.5-.26a4.82,4.82,0,0,1,1.49-.25,4.86,4.86,0,0,1,3,8.67c-6.88,3.79-18.47,9.31-22.65,9.31"/><path d="M75.9,40.24h-.06c-.24,0-23.46-.05-25.29-3.77a1.14,1.14,0,0,1,.07-1.13c1.71-2.74,23.08-4.68,24.88-4.68H76A4.86,4.86,0,0,1,76,40.23Z"/></svg>