<?xml version="1.0" encoding="iso-8859-1"?>
<!-- Generator: Adobe Illustrator 16.0.4, SVG Export Plug-In . SVG Version: 6.00 Build 0)  -->
<!DOCTYPE svg PUBLIC "-//W3C//DTD SVG 1.1//EN" "http://www.w3.org/Graphics/SVG/1.1/DTD/svg11.dtd">
<svg version="1.1" id="Laag_1" xmlns="http://www.w3.org/2000/svg" xmlns:xlink="http://www.w3.org/1999/xlink" x="0px" y="0px"
	 width="226.77px" height="226.77px" viewBox="0 0 226.77 226.77" style="enable-background:new 0 0 226.77 226.77;"
	 xml:space="preserve">
<rect x="0" y="-0.002" style="fill:#CF0039;" width="226.771" height="226.772"/>
<g>
	<path style="fill:#FFFFFF;" d="M143.062,171.092l-9.062-25.701H91.825l-9.062,25.701H58.049l44.155-115.325h22.406l43.823,115.325
		H143.062z M118.68,102.555c-2.307-6.754-4.614-13.673-5.768-17.957c-1.152,4.284-3.458,11.203-5.766,17.957l-7.415,20.924h26.363
		L118.68,102.555z"/>
</g>
<path style="fill:#F18A00;" d="M53.274,116.617c-0.543,1.617-2.294,2.488-3.911,1.945l-32.162-10.793
	c-1.616-0.543-2.489-2.293-1.946-3.91l2.675-7.969c0.543-1.616,2.294-2.487,3.911-1.945l32.161,10.795
	c1.617,0.542,2.49,2.293,1.947,3.91L53.274,116.617z"/>
<path style="fill:#F18A00;" d="M51.519,141.869c0.542,1.617-0.33,3.368-1.949,3.91l-22.909,8.131
	c-1.618,0.542-3.367-0.331-3.909-1.948l-2.669-7.97c-0.541-1.617,0.331-3.368,1.949-3.909l22.91-8.132
	c1.617-0.542,3.367,0.331,3.909,1.948L51.519,141.869z"/>
<path style="fill:#F18A00;" d="M45.213,68.327c-1.35,1.042-1.598,2.982-0.554,4.333l14.518,19.499
	c1.045,1.349,2.982,1.597,4.333,0.555l6.649-5.14c1.35-1.044,1.599-2.983,0.555-4.334L56.196,63.741
	c-1.043-1.35-2.982-1.598-4.333-0.555L45.213,68.327z"/>
<path style="fill:#F18A00;" d="M172.977,116.617c0.543,1.617,2.294,2.488,3.911,1.945l32.163-10.793
	c1.615-0.543,2.488-2.293,1.945-3.91l-2.675-7.969c-0.543-1.616-2.294-2.487-3.911-1.945l-32.161,10.795
	c-1.617,0.542-2.49,2.293-1.947,3.91L172.977,116.617z"/>
<path style="fill:#F18A00;" d="M174.732,141.869c-0.543,1.617,0.33,3.368,1.949,3.91l22.908,8.131
	c1.619,0.542,3.369-0.331,3.909-1.948l2.669-7.97c0.542-1.617-0.33-3.368-1.949-3.909l-22.909-8.132
	c-1.617-0.542-3.368,0.331-3.909,1.948L174.732,141.869z"/>
<path style="fill:#F18A00;" d="M181.038,68.327c1.349,1.042,1.598,2.982,0.553,4.333l-14.518,19.499
	c-1.045,1.349-2.981,1.597-4.333,0.555l-6.649-5.14c-1.35-1.044-1.599-2.983-0.554-4.334l14.518-19.499
	c1.043-1.35,2.983-1.598,4.333-0.555L181.038,68.327z"/>
</svg>
