<svg id="Layer_1" data-name="Layer 1" xmlns="http://www.w3.org/2000/svg" viewBox="0 0 577 200"><defs><style>.cls-1{fill:#00b3c4;}.cls-2{fill:#ffffff;}</style></defs><title>Artboard 1</title><path class="cls-1" d="M208.67,127.25l-20.8-36a4.63,4.63,0,0,0-4-2.32H165.58l9.09-15.76a4.65,4.65,0,0,0,0-4.62l-20.8-36a4.65,4.65,0,0,0-4-2.31H108.2a4.64,4.64,0,0,0-4,2.31l-20.86,36a4.61,4.61,0,0,0,0,4.64L92.5,89H74.4a4.64,4.64,0,0,0-4,2.31l-20.86,36a4.65,4.65,0,0,0,0,4.65l21,36a4.65,4.65,0,0,0,4,2.3h41.58a4.66,4.66,0,0,0,4-2.32l9-15.58,9.23,15.62a4.63,4.63,0,0,0,4,2.27h41.59a4.66,4.66,0,0,0,4-2.31l20.78-36A4.66,4.66,0,0,0,208.67,127.25ZM108.86,36h37L127.41,68H90.33ZM56.55,132.48H93.62l18.47,32H75.16Zm75.75,13.93a3.79,3.79,0,0,0-3.24-1.85h0a3.77,3.77,0,0,0-3.23,1.88l-8.72,15.11-18.47-32,16.85-29.19a8.71,8.71,0,1,0-5-2.89L93.62,126.7H56.54l18.53-32H96a3.75,3.75,0,0,0,3.25-5.64L90.34,73.77h37.07L144.28,103a8.7,8.7,0,1,0,5-2.89L132.41,70.88l18.46-32,18.46,32-10.5,18.2a3.76,3.76,0,0,0,3.26,5.64h17.78l-18.45,32H127.53a8.72,8.72,0,1,0,0,5.77h33.89l18.46,32H143Zm52.58,15.13-18.46-32,18.45-32,18.47,32Z"/><path class="cls-2" d="M265.63,120.13H248.26l-2.58,12.31h-14.3L248.15,67.9h17.57l17,64.54h-14.4ZM250.84,109h12.21l-6-29.09h-.2Z"/><path class="cls-2" d="M317.62,112h13.71c0,15.09-6.65,21.65-22.74,21.65s-23.24-7.24-23.24-23.13V89.84c0-16.38,7.74-23.14,23.23-23.14,16.09,0,22.74,6.45,22.74,21.55h-13.7c0-7.25-2.68-10.23-9-10.23-6.06,0-9.33,2.59-9.33,9.73v24.83c0,7.15,3.48,9.73,9.34,9.73C314.94,122.31,317.63,119.63,317.62,112Z"/><path class="cls-2" d="M339.26,67.89H361.4c15.4,0,23,3.67,23.05,21.05,0,16.29-7.35,20.86-22.84,20.86h-8.44v22.64h-13.9Zm22.15,31c6.36,0,9.14-2,9.13-9.83,0-7.54-2.68-9.83-9-9.83h-8.35V98.87Z"/><path class="cls-2" d="M402.62,104.22l14-1V98.85c0-4.56-1.89-6.35-7.55-6.35s-7.55,2-7.54,6.46H388.22c0-11.42,5.85-17.38,20.75-17.38,15.39,0,21.15,5.65,21.16,17.27v33.57H418v-4.27a23.46,23.46,0,0,1-15.2,5.46c-11,0-16.38-5.56-16.38-14.69C386.43,110.18,390.9,105,402.62,104.22Zm14,14.4v-7.75l-11.32,1.29c-3.67.4-5.36,2.39-5.36,5.47,0,3.37,2.29,5.06,5.56,5.06A16.63,16.63,0,0,0,416.62,118.62Z"/><path class="cls-2" d="M450.78,104.21l14-1V98.85c0-4.57-1.89-6.36-7.55-6.36s-7.55,2-7.55,6.46h-13.3c0-11.42,5.85-17.38,20.75-17.38,15.39,0,21.15,5.65,21.15,17.27v33.57H466.17v-4.27A23.42,23.42,0,0,1,451,133.6c-11,0-16.38-5.55-16.39-14.69C434.59,110.17,439.06,105,450.78,104.21Zm14,14.4v-7.75l-11.32,1.29c-3.67.4-5.36,2.39-5.36,5.47,0,3.37,2.28,5.06,5.56,5.06A16.65,16.65,0,0,0,464.78,118.61Z"/><path class="cls-2" d="M503,104.5c-12.71-2.18-19.46-6.45-19.47-19.16,0-11.42,7.15-18.67,22.84-18.68,16.29,0,22.74,5.26,22.74,19.06h-13.9c0-5.46-2.68-7.75-8.94-7.75s-8.64,2.59-8.63,7.45c0,5.86,2.08,8,11.81,9.63,16.09,2.58,20.66,7,20.66,18,0,15.3-9,20.56-23.63,20.56-16.88,0-23.73-5.85-23.74-20.45h13.91c0,6.65,3,9.13,9.83,9.13,7,0,9.73-2.28,9.73-9C516.22,108.27,514.33,106.48,503,104.5Z"/></svg>
